<svg width="20" height="20" viewBox="0 0 20 20" fill="none" xmlns="http://www.w3.org/2000/svg">
<path d="M4.16667 5.83334H5C5.44203 5.83334 5.86595 5.65775 6.17851 5.34519C6.49107 5.03263 6.66667 4.6087 6.66667 4.16668C6.66667 3.94566 6.75446 3.7337 6.91074 3.57742C7.06702 3.42114 7.27899 3.33334 7.5 3.33334H12.5C12.721 3.33334 12.933 3.42114 13.0893 3.57742C13.2455 3.7337 13.3333 3.94566 13.3333 4.16668C13.3333 4.6087 13.5089 5.03263 13.8215 5.34519C14.134 5.65775 14.558 5.83334 15 5.83334H15.8333C16.2754 5.83334 16.6993 6.00894 17.0118 6.3215C17.3244 6.63406 17.5 7.05798 17.5 7.50001V15C17.5 15.442 17.3244 15.866 17.0118 16.1785C16.6993 16.4911 16.2754 16.6667 15.8333 16.6667H4.16667C3.72464 16.6667 3.30072 16.4911 2.98816 16.1785C2.67559 15.866 2.5 15.442 2.5 15V7.50001C2.5 7.05798 2.67559 6.63406 2.98816 6.3215C3.30072 6.00894 3.72464 5.83334 4.16667 5.83334" stroke="#515151" stroke-width="2" stroke-linecap="round" stroke-linejoin="round"/>
<path d="M10 13.3333C11.3807 13.3333 12.5 12.214 12.5 10.8333C12.5 9.4526 11.3807 8.33331 10 8.33331C8.61929 8.33331 7.5 9.4526 7.5 10.8333C7.5 12.214 8.61929 13.3333 10 13.3333Z" stroke="#515151" stroke-width="2" stroke-linecap="round" stroke-linejoin="round"/>
</svg>
