<svg width="26" height="24" viewBox="0 0 26 24" fill="none" xmlns="http://www.w3.org/2000/svg">
<path d="M5.45567 13.433C5.12701 13.433 4.86063 13.6994 4.86063 14.028C4.86063 14.3567 5.12701 14.6231 5.45567 14.6231H5.50526C5.83392 14.6231 6.1003 14.3567 6.1003 14.028C6.1003 13.6994 5.83392 13.433 5.50526 13.433H5.45567ZM8.2737 13.433C7.94504 13.433 7.67866 13.6994 7.67866 14.028C7.67866 14.3567 7.94504 14.6231 8.2737 14.6231H8.32322C8.65188 14.6231 8.91826 14.3567 8.91826 14.028C8.91826 13.6994 8.65188 13.433 8.32322 13.433H8.2737ZM25 3.92891V10.6265C25 12.2123 23.7285 13.4991 22.1427 13.4991H14.4259C14.275 13.4991 14.1507 13.4982 14.0468 13.496C13.9379 13.4938 13.8153 13.4929 13.7675 13.4982C13.7178 13.5313 13.5957 13.6431 13.4781 13.7515C13.4315 13.7944 13.3787 13.8416 13.3218 13.8935L11.1385 15.8835C10.9644 16.0424 10.7067 16.0835 10.491 15.9884C10.2754 15.8933 10.124 15.6797 10.124 15.444V9.13545H3.89058C2.96086 9.13545 2.19008 9.8973 2.19008 10.8269V17.5245C2.19008 18.4541 2.96093 19.185 3.89058 19.185H12.5103C12.6588 19.185 12.7976 19.2532 12.9072 19.3533L14.686 20.9932V15.3378C14.686 15.0091 14.9523 14.7427 15.281 14.7427C15.6097 14.7427 15.876 15.0091 15.876 15.3378V22.3419C15.876 22.5776 15.7412 22.788 15.5254 22.8832C15.4483 22.9172 15.3708 22.9306 15.2897 22.9306C15.1439 22.9306 15.0002 22.8708 14.8884 22.7687L12.2797 20.3751H3.89058C2.30473 20.3751 1 19.1103 1 17.5244V10.8269C1 9.24111 2.30473 7.94537 3.89058 7.94537H10.124V3.92891C10.124 2.34306 11.4387 1.06934 13.0245 1.06934H22.1427C23.7285 1.06934 25 2.34306 25 3.92891ZM23.8099 3.92891C23.8099 2.99925 23.0723 2.25942 22.1427 2.25942H13.0245C12.0949 2.25942 11.314 2.99925 11.314 3.92891V8.54596V14.0953L12.5104 13.0141C12.5658 12.9636 12.6279 12.9173 12.6732 12.8755C13.2195 12.3721 13.3593 12.2916 14.0719 12.3063C14.1691 12.3083 14.2848 12.3091 14.4259 12.3091H22.1427C23.0723 12.3091 23.8099 11.5561 23.8099 10.6266V3.92891Z" fill="#6626EE" stroke="#6626EE"/>
<path d="M18.6453 7.76727C19.0315 7.44305 19.5576 7.00134 19.5576 6.27646C19.5576 5.29564 18.7597 4.49993 17.7788 4.5C16.798 4.5 16 5.29795 16 6.27871C16 6.60737 16.2664 6.87375 16.595 6.87375C16.9237 6.87375 17.1901 6.60737 17.1901 6.27871C17.1901 5.95415 17.4542 5.69008 17.7789 5.69008C18.1035 5.69008 18.3675 5.95415 18.3675 6.27871C18.3675 6.43904 18.1731 6.61425 17.8766 6.86324C17.4986 7.18053 17.0284 7.56645 17.0336 8.21088C17.0362 8.53782 17.3021 8.79217 17.6285 8.79217H17.6335C17.9621 8.79217 18.2263 8.52975 18.2237 8.20116C18.2229 8.11739 18.4954 7.89312 18.6418 7.77022L18.6453 7.76727Z" fill="#6626EE"/>
<path d="M17.0631 9.9365C17.0631 9.60784 17.3163 9.34146 17.645 9.34146C17.9736 9.34146 18.24 9.60784 18.24 9.9365C18.24 10.2652 17.9736 10.5339 17.645 10.5339C17.3164 10.5339 17.0631 10.2697 17.0631 9.94106V9.9365Z" fill="#6626EE"/>
</svg>
