<svg width="26" height="24" viewBox="0 0 26 24" fill="none" xmlns="http://www.w3.org/2000/svg">
<path d="M4.50262 14.7312H2.07758C1.4834 14.7312 1 15.2146 1 15.809V22.1078C1 22.702 1.4834 23.1854 2.07758 23.1854H4.50262C5.09698 23.1854 5.58038 22.702 5.58038 22.1078V15.809C5.58038 15.2146 5.09698 14.7312 4.50262 14.7312ZM4.87726 22.1078C4.87726 22.3141 4.70917 22.4822 4.50262 22.4822H2.07758C1.87122 22.4822 1.70312 22.3141 1.70312 22.1078V15.809C1.70312 15.6024 1.87122 15.4343 2.07758 15.4343H4.50262C4.70917 15.4343 4.87726 15.6024 4.87726 15.809V22.1078Z" fill="white" stroke="white"/>
<path d="M10.976 9.79431H8.5509C7.95673 9.79431 7.47333 10.2777 7.47333 10.8719V12.8708C7.47333 13.0649 7.63062 13.2224 7.82489 13.2224C8.01898 13.2224 8.17645 13.0649 8.17645 12.8708V10.8719C8.17645 10.6655 8.34436 10.4974 8.5509 10.4974H10.976C11.1825 10.4974 11.3504 10.6655 11.3504 10.8719V22.1078C11.3504 22.3141 11.1825 22.4822 10.976 22.4822H8.5509C8.34436 22.4822 8.17645 22.3141 8.17645 22.1078V14.2771C8.17645 14.083 8.01898 13.9255 7.82489 13.9255C7.63062 13.9255 7.47333 14.083 7.47333 14.2771V22.1078C7.47333 22.702 7.95673 23.1854 8.5509 23.1854H10.976C11.5701 23.1854 12.0535 22.702 12.0535 22.1078V10.8721C12.0535 10.2777 11.5701 9.79431 10.976 9.79431Z" fill="white" stroke="white"/>
<path d="M17.4491 12.7566H15.024C14.4299 12.7566 13.9465 13.24 13.9465 13.8342V22.1078C13.9465 22.702 14.4299 23.1854 15.024 23.1854H17.4491C18.0435 23.1854 18.5269 22.702 18.5269 22.1078V13.8342C18.5269 13.24 18.0435 12.7566 17.4491 12.7566ZM17.8237 22.1078C17.8237 22.3141 17.6556 22.4822 17.4491 22.4822H15.024C14.8175 22.4822 14.6496 22.3141 14.6496 22.1078V13.8342C14.6496 13.6276 14.8175 13.4597 15.024 13.4597H17.4491C17.6556 13.4597 17.8237 13.6276 17.8237 13.8342V22.1078Z" fill="white" stroke="white"/>
<path d="M23.9224 7.3259H21.4974C20.9032 7.3259 20.4196 7.8093 20.4196 8.40347V18.449C20.4196 18.6431 20.5771 18.8006 20.7712 18.8006C20.9655 18.8006 21.1227 18.6431 21.1227 18.449V8.40347C21.1227 8.19693 21.2908 8.02902 21.4974 8.02902H23.9224C24.1288 8.02902 24.2969 8.19693 24.2969 8.40347V22.1078C24.2969 22.3142 24.1288 22.4823 23.9224 22.4823H21.4974C21.2908 22.4823 21.1227 22.3142 21.1227 22.1078V19.8553C21.1227 19.6612 20.9655 19.5037 20.7712 19.5037C20.5771 19.5037 20.4196 19.6612 20.4196 19.8553V22.1078C20.4196 22.702 20.9032 23.1854 21.4974 23.1854H23.9224C24.5166 23.1854 25 22.702 25 22.1078V8.40347C25 7.8093 24.5166 7.3259 23.9224 7.3259Z" fill="white" stroke="white"/>
<path d="M3.2901 8.20221C2.08234 8.20221 1.09961 9.18494 1.09961 10.3927C1.09961 11.6006 2.08234 12.5834 3.2901 12.5834C4.49805 12.5834 5.48077 11.6006 5.48077 10.3927C5.48077 10.2968 5.47382 10.2026 5.46191 10.11L8.91583 7.47565C9.17657 7.58551 9.46313 7.64648 9.76343 7.64648C10.2369 7.64648 10.6755 7.49487 11.0342 7.23853L14.0558 8.62115C14.1587 9.73407 15.0973 10.6086 16.2366 10.6086C17.4445 10.6086 18.4272 9.62585 18.4272 8.41809C18.4272 8.28717 18.415 8.15918 18.393 8.03467L21.9568 5.04456C22.1917 5.13098 22.4455 5.17804 22.7099 5.17804C23.9177 5.17804 24.9004 4.19531 24.9004 2.98737C24.9004 1.7796 23.9177 0.796875 22.7099 0.796875C21.502 0.796875 20.5192 1.7796 20.5192 2.98737C20.5192 3.11829 20.5315 3.24628 20.5535 3.37079L16.9895 6.3609C16.7548 6.27466 16.501 6.22742 16.2366 6.22742C15.7631 6.22742 15.3245 6.37903 14.9658 6.63556L11.9442 5.25275C11.8413 4.13983 10.9029 3.26532 9.76343 3.26532C8.55548 3.26532 7.57294 4.24805 7.57294 5.45581C7.57294 5.55176 7.57971 5.64606 7.5918 5.73871L4.1377 8.37286C3.87677 8.263 3.59058 8.20221 3.2901 8.20221ZM22.7099 1.5C23.53 1.5 24.1973 2.16724 24.1973 2.98737C24.1973 3.8075 23.53 4.47491 22.7099 4.47491C21.902 4.47491 21.2224 3.79523 21.2224 2.98737C21.2224 2.16724 21.8896 1.5 22.7099 1.5ZM20.8085 4.07465C20.8144 4.0849 20.8208 4.09479 20.8268 4.10486C20.9539 4.31891 21.1174 4.51117 21.3086 4.67065L18.1379 7.33063C18.1321 7.32037 18.0359 7.16766 17.9889 7.10486C17.8867 6.96863 17.769 6.84412 17.6379 6.73462L20.8085 4.07465ZM14.7494 8.39612C14.7615 7.59888 15.4348 6.93054 16.2366 6.93054C17.036 6.93054 17.7239 7.61407 17.7239 8.41809C17.7239 9.23822 17.0567 9.90546 16.2366 9.90546C15.4164 9.90546 14.7492 9.23822 14.7492 8.41809C14.7492 8.41077 14.7492 8.40344 14.7494 8.39612ZM11.5698 6.69324C11.7137 6.48193 11.8223 6.24701 11.8856 5.99927L14.4388 7.16748C14.3088 7.3548 14.2072 7.56281 14.1407 7.78107C14.1312 7.81201 14.1224 7.84314 14.1144 7.87445L11.5612 6.70624C11.5641 6.70203 11.5668 6.69763 11.5698 6.69324ZM9.76343 3.96844C10.5836 3.96844 11.2508 4.63568 11.2508 5.45581C11.2508 6.25708 10.5634 6.94336 9.76343 6.94336C8.96307 6.94336 8.27588 6.26074 8.27588 5.45581C8.27588 4.63568 8.94312 3.96844 9.76343 3.96844ZM7.81354 6.45374C7.81775 6.46179 7.82251 6.46985 7.82672 6.47791C7.94427 6.7002 8.1001 6.90234 8.28558 7.07208L5.23999 9.39496C5.18359 9.2851 5.11731 9.17963 5.04333 9.08093C4.9613 8.97144 4.86938 8.86926 4.76794 8.77643L7.81354 6.45374ZM4.17651 9.21112C4.53741 9.48578 4.77765 9.91827 4.77765 10.3927C4.77765 11.213 4.11041 11.8802 3.2901 11.8802C2.46997 11.8802 1.80273 11.213 1.80273 10.3927C1.80273 9.57257 2.46997 8.90533 3.2901 8.90533C3.61713 8.90533 3.92603 9.02014 4.17651 9.21112Z" fill="white" stroke="white" stroke-width="0.5"/>
</svg>
