<svg width="250" height="152" viewBox="0 0 250 152" fill="none" xmlns="http://www.w3.org/2000/svg">
<g clip-path="url(#clip0)">
<path d="M218.199 51.0199L211.876 63.5383L192.968 72.1338C190.949 75.5461 184.533 75.8072 184.067 73.6006C183.543 71.1251 191.858 67.1406 191.858 67.1406L207.672 56.4441L209.056 47.2358L218.199 51.0199Z" fill="#A0616A"/>
<path d="M217.453 135.029L218.619 144.358L211.855 144.824L211.156 135.029H217.453Z" fill="#A0616A"/>
<path d="M216.52 142.959C217.125 142.319 217.682 141.637 218.189 140.918C219.158 139.576 220.018 146.457 220.018 146.457C220.018 146.457 220.951 149.256 220.718 150.655C220.485 152.055 215.121 152.055 214.188 151.821C213.255 151.588 208.59 151.821 208.59 151.821H201.593C195.529 149.023 201.593 147.157 201.593 147.157C203.459 146.924 209.756 141.093 209.756 141.093L211.156 138.527C212.089 138.294 213.022 141.793 213.022 141.793L216.52 142.959Z" fill="#141414"/>
<path d="M234.945 135.145L236.111 144.474L229.348 144.941L228.648 135.145H234.945Z" fill="#A0616A"/>
<path d="M234.012 143.075C234.617 142.436 235.175 141.754 235.681 141.034C236.65 139.693 237.511 146.574 237.511 146.574C237.511 146.574 238.443 149.139 238.21 150.539C237.977 151.938 232.613 151.938 231.68 151.705C230.747 151.472 226.082 151.938 226.082 151.938H219.085C213.022 149.139 219.085 147.273 219.085 147.273C220.951 147.04 227.248 141.209 227.248 141.209L228.648 138.644C229.581 138.411 230.514 141.909 230.514 141.909L234.012 143.075Z" fill="#141414"/>
<path d="M227.248 74.9721C228.181 76.1383 227.715 80.1032 227.715 80.1032C227.715 80.1032 229.348 92.9309 228.648 94.097C227.948 95.2632 229.114 96.1961 229.814 97.8287C230.514 99.4613 231.213 103.426 231.213 103.426C235.178 106.691 234.945 121.618 234.945 121.618L236.344 134.912C235.878 136.312 229.348 136.545 228.415 136.312C227.482 136.078 224.683 115.088 224.683 115.088L218.386 103.193C218.386 103.193 218.852 134.912 218.852 136.312C218.852 137.711 212.555 137.011 211.156 137.011C209.756 137.011 209.756 113.688 209.756 113.688L208.357 107.624L200.894 79.87V76.6048L202.06 74.9721C202.06 74.9721 226.316 73.806 227.248 74.9721Z" fill="#141414"/>
<path d="M216.986 22.0288C220.98 22.0288 224.217 18.7918 224.217 14.7987C224.217 10.8056 220.98 7.5686 216.986 7.5686C212.993 7.5686 209.756 10.8056 209.756 14.7987C209.756 18.7918 212.993 22.0288 216.986 22.0288Z" fill="#A0616A"/>
<path d="M213.371 18.1805C214.837 21.444 213.969 26.0022 211.039 31.0082L222.934 25.4107L221.068 23.7781L221.534 19.1135L213.371 18.1805Z" fill="#A0616A"/>
<path d="M213.371 25.6441C211.814 26.5701 210.882 28.2715 210.347 30.0029C209.357 33.2083 208.761 36.5224 208.572 39.872L208.007 49.9L201.01 76.4882C207.074 81.6192 210.573 80.4531 218.736 76.2549C226.899 72.0568 227.832 77.6543 227.832 77.6543C227.832 77.6543 228.531 77.4211 227.832 76.7214C227.132 76.0217 227.832 76.7214 228.531 76.0217C229.231 75.322 228.531 76.0217 228.298 75.322C228.065 74.6223 228.298 75.0888 228.531 74.8555C228.765 74.6223 227.598 72.5232 227.598 72.5232L229.464 55.031L231.797 30.3086C228.998 26.8102 221.068 23.7782 221.068 23.7782L213.838 28.9092C211.506 29.8422 213.371 26.1105 213.371 26.1105V25.6441Z" fill="#6626EE"/>
<path d="M235.645 45.1187L236.578 59.1124L224.683 76.1382C224.683 80.1031 222.584 81.0361 222.584 81.0361C221.789 79.7671 221.087 78.442 220.485 77.0711C219.319 74.5056 221.185 72.4065 221.185 72.4065L229.348 55.1475L225.849 46.5181L235.645 45.1187Z" fill="#A0616A"/>
<path d="M231.68 30.4251C235.645 31.8245 236.344 46.9844 236.344 46.9844C231.68 44.4189 226.082 48.6171 226.082 48.6171C226.082 48.6171 224.916 44.6522 223.517 39.5211C223.094 38.0778 223.044 36.5511 223.37 35.083C223.696 33.615 224.389 32.2533 225.383 31.1248C225.383 31.1248 227.715 29.0258 231.68 30.4251Z" fill="#6626EE"/>
<path d="M223.634 17.0144C222.713 16.2781 221.457 17.6165 221.457 17.6165L220.721 10.9894C220.721 10.9894 216.119 11.5417 213.174 10.8054C210.228 10.069 209.768 13.4746 209.768 13.4746C209.616 12.0993 209.585 10.7134 209.676 9.33268C209.86 7.67592 212.253 6.01914 216.487 4.91462C220.721 3.81011 222.93 8.59634 222.93 8.59634C225.876 10.069 224.554 17.7508 223.634 17.0144Z" fill="#141414"/>
<path d="M11.7522 114.332C12.5471 117.488 19.3253 124.584 26.3194 131.248C15.5339 104.607 21.6799 75.4519 21.6799 75.4519C19.6772 86.9025 47.1237 144.526 47.1237 144.526L40.8724 148.212L38.7606 151.184C17.591 141.461 11.7522 114.332 11.7522 114.332Z" fill="#E6E6E6"/>
<path d="M194.147 55.2582H105.729V72.715H194.147V55.2582Z" fill="#E6E6E6"/>
<path d="M194.147 27.6746H105.729V45.1313H194.147V27.6746Z" fill="#E6E6E6"/>
<path d="M194.147 0H105.729V17.4568H194.147V0Z" fill="#E6E6E6"/>
<path d="M107.614 15.5718H192.262V1.88489H107.614V15.5718Z" fill="white"/>
<path d="M107.614 43.3073H192.262V29.6204H107.614V43.3073Z" fill="white"/>
<path d="M107.614 70.8301H192.262V57.1432H107.614V70.8301Z" fill="white"/>
<path d="M115.025 13.8294C117.904 13.8294 120.239 11.4948 120.239 8.615C120.239 5.73518 117.904 3.40063 115.025 3.40063C112.145 3.40063 109.81 5.73518 109.81 8.615C109.81 11.4948 112.145 13.8294 115.025 13.8294Z" fill="#6626EE"/>
<path d="M178.957 6.57458H127.494V7.70814H178.957V6.57458Z" fill="#6626EE"/>
<path d="M178.957 9.52185H127.494V10.6554H178.957V9.52185Z" fill="#6626EE"/>
<path d="M115.025 41.7306C117.904 41.7306 120.239 39.3961 120.239 36.5162C120.239 33.6364 117.904 31.3019 115.025 31.3019C112.145 31.3019 109.81 33.6364 109.81 36.5162C109.81 39.3961 112.145 41.7306 115.025 41.7306Z" fill="#CCCCCC"/>
<path d="M178.957 34.476H127.494V35.6095H178.957V34.476Z" fill="#CCCCCC"/>
<path d="M178.957 37.423H127.494V38.5565H178.957V37.423Z" fill="#CCCCCC"/>
<path d="M115.025 69.3142C117.904 69.3142 120.239 66.9797 120.239 64.0999C120.239 61.22 117.904 58.8855 115.025 58.8855C112.145 58.8855 109.81 61.22 109.81 64.0999C109.81 66.9797 112.145 69.3142 115.025 69.3142Z" fill="#CCCCCC"/>
<path d="M178.957 62.0596H127.494V63.1931H178.957V62.0596Z" fill="#CCCCCC"/>
<path d="M178.957 65.0068H127.494V66.1404H178.957V65.0068Z" fill="#CCCCCC"/>
<path d="M40.5418 50.3557C40.5418 50.3557 39.3227 58.0187 44.3733 57.3221C44.3733 57.3221 64.4016 52.794 65.4465 53.8389C66.4915 54.8839 72.9879 55.2396 72.649 50.8341C72.3089 46.4138 65.7949 48.9625 65.7949 48.9625C65.7949 48.9625 55.6936 50.3557 53.6037 49.3108C51.5139 48.2658 45.5924 48.6141 45.5924 48.6141L40.5418 50.3557Z" fill="#A0616A"/>
<path d="M55.8257 75.3453L53.0486 101.695C53.0486 101.695 52.1778 112.144 49.5654 114.408C49.5654 114.408 49.5654 117.717 48.6946 118.762L47.4755 132.521C47.4755 132.521 49.2171 137.571 49.043 138.442C48.8688 139.313 49.7396 142.1 49.5654 142.448C49.3913 142.796 41.2058 142.448 41.2058 142.448L42.9474 114.408L48.3463 75.3968L55.8257 75.3453Z" fill="#141414"/>
<path d="M40.5678 141.023C40.5678 141.023 36.9154 150.234 38.821 151.345C40.7266 152.457 60.7356 151.663 60.7356 151.663C60.7356 151.663 64.0704 149.599 60.2592 148.169C60.2592 148.169 57.0831 148.011 55.0188 146.74C52.9544 145.47 50.5723 143.088 50.5723 143.088C50.5723 143.088 50.4135 139.594 49.1431 140.388C48.763 140.639 48.4395 140.966 48.1934 141.349C47.9472 141.731 47.7839 142.162 47.7139 142.611L40.5678 141.023Z" fill="#141414"/>
<path d="M34.9361 139.775C34.9361 139.775 30.9305 149.876 33.0204 151.095C35.1103 152.314 57.0543 151.443 57.0543 151.443C57.0543 151.443 60.7116 149.179 56.5318 147.612C56.5318 147.612 53.0486 147.438 50.7845 146.044C48.5205 144.651 45.9081 142.039 45.9081 142.039C45.9081 142.039 45.734 138.207 44.3407 139.078C43.9238 139.353 43.569 139.711 43.2991 140.131C43.0292 140.551 42.8501 141.023 42.7733 141.516L34.9361 139.775Z" fill="#141414"/>
<path d="M51.1329 74.9876C51.1329 74.9876 49.2172 92.9259 48.3464 96.7574C47.7989 99.2806 47.4495 101.843 47.3014 104.42C47.3014 104.42 47.1273 109.993 45.5598 111.561C45.1012 112.015 44.7409 112.558 44.5012 113.158C44.2615 113.757 44.1476 114.399 44.1665 115.044C44.1665 115.044 42.5991 132.634 43.4699 134.724C44.3407 136.814 45.5228 139.529 44.6521 140.922C43.7813 142.316 33.8912 141.342 33.8912 140.297C33.8912 139.252 33.8912 138.381 33.3687 137.859C32.8462 137.336 33.3687 134.027 33.3687 134.027C33.3687 134.027 31.2788 118.527 33.1945 113.999C35.1103 109.471 35.9811 97.1057 35.9811 97.1057C35.9811 97.1057 34.5878 82.9989 32.8462 80.7348C31.1046 78.4708 33.1945 70.4595 33.1945 70.4595L51.1329 74.9876Z" fill="#141414"/>
<path d="M46.2296 19.2813C46.4321 19.7425 46.9167 19.9993 47.3579 20.2423C49.9149 21.651 52.0552 23.6934 54.164 25.7122C53.6378 23.9291 53.7499 22.0183 54.481 20.3089C54.7328 19.7259 55.0628 19.0992 54.8828 18.4901C54.7053 18.0548 54.3966 17.6854 53.9996 17.4335C53.1392 16.768 52.2398 16.1544 51.3064 15.596C50.6543 15.2058 49.3136 14.1673 48.5653 14.2803C48.526 15.2914 48.5055 16.1953 48.0627 17.1403C47.9577 17.3644 46.307 19.4576 46.2296 19.2813Z" fill="#A0616A"/>
<path d="M55.1386 21.5209C59.0821 21.5209 62.2791 18.324 62.2791 14.3804C62.2791 10.4368 59.0821 7.23987 55.1386 7.23987C51.195 7.23987 47.998 10.4368 47.998 14.3804C47.998 18.324 51.195 21.5209 55.1386 21.5209Z" fill="#A0616A"/>
<path d="M55.4869 31.2737C55.4869 31.2737 56.706 25.1782 53.2228 23.0883C49.7396 20.9984 45.734 18.5601 45.734 18.5601C45.734 18.5601 44.5149 18.386 43.9924 20.9984C43.9924 20.9984 34.0653 22.9141 33.0204 32.3187C31.9754 41.7233 33.717 55.4818 33.717 55.4818C33.717 55.4818 32.1496 67.4988 30.2339 73.9427C30.2339 73.9427 28.6664 75.3359 35.6328 73.246C42.5991 71.1561 54.7902 79.1674 54.7902 79.1674C54.7902 79.1674 56.0093 77.9483 56.0093 77.0775C56.0093 76.2067 58.6217 49.7346 59.1442 47.2963C59.6667 44.8581 57.0543 31.6221 55.4869 31.2737Z" fill="#E6E6E6"/>
<path d="M78.2816 42.7335C78.2512 42.7802 78.216 42.8236 78.1765 42.8629L62.891 58.4063C62.8165 58.4805 62.7281 58.5391 62.6307 58.5787C62.5334 58.6183 62.4292 58.6382 62.3241 58.6372C62.2191 58.6362 62.1152 58.6143 62.0187 58.5728C61.9222 58.5313 61.8349 58.471 61.7618 58.3954L56.6327 52.9825C56.5977 52.9462 56.5663 52.9066 56.5389 52.8643C56.4533 53.0109 56.423 53.1833 56.4534 53.3503C56.4838 53.5173 56.5729 53.668 56.7047 53.775L61.7258 58.9718C61.7988 59.0474 61.8861 59.1077 61.9827 59.1492C62.0792 59.1907 62.183 59.2126 62.2881 59.2136C62.3932 59.2146 62.4974 59.1947 62.5947 59.1551C62.692 59.1155 62.7805 59.0569 62.8549 58.9827L78.1765 43.7275C78.3055 43.599 78.3863 43.4301 78.4054 43.2491C78.4245 43.0682 78.3808 42.8861 78.2816 42.7335H78.2816Z" fill="#6626EE"/>
<path d="M76.863 42.9215L76.2395 42.524C76.3052 42.641 76.3293 42.7768 76.3079 42.9093C76.2865 43.0418 76.2209 43.1632 76.1218 43.2536C76.0227 43.344 75.8958 43.3982 75.7619 43.4074C75.628 43.4165 75.495 43.3801 75.3845 43.304L71.3498 40.5301C71.258 40.4671 71.1859 40.3797 71.1414 40.2777C71.097 40.1757 71.0821 40.0633 71.0985 39.9533C71.1149 39.8433 71.1618 39.74 71.234 39.6554C71.3062 39.5707 71.4007 39.5081 71.5067 39.4745L71.1855 39.2697C71.1438 39.2432 71.0943 39.2317 71.0452 39.2372C70.996 39.2427 70.9503 39.2649 70.9155 39.3001L57.3424 52.6388C57.3222 52.6593 57.3062 52.6836 57.2955 52.7103C57.2848 52.7371 57.2796 52.7657 57.2801 52.7945C57.2806 52.8233 57.2868 52.8517 57.2985 52.8781C57.3101 52.9044 57.3269 52.9282 57.3479 52.948L62.2773 57.7511C62.3182 57.7897 62.3724 57.8108 62.4286 57.81C62.4848 57.8092 62.5384 57.7866 62.5782 57.747L76.8994 43.2569C76.9223 43.234 76.9398 43.2063 76.9506 43.1758C76.9614 43.1452 76.9652 43.1127 76.9617 43.0805C76.9582 43.0483 76.9475 43.0173 76.9304 42.9898C76.9133 42.9622 76.8903 42.9389 76.863 42.9215Z" fill="white"/>
<path d="M61.1975 49.6934L65.3614 53.6194L75.2651 43.8343L70.2388 40.5629L61.1975 49.6934Z" fill="#E6E6E6"/>
<path d="M61.2937 54.0359C61.8309 54.0359 62.2664 53.6004 62.2664 53.0632C62.2664 52.5261 61.8309 52.0906 61.2937 52.0906C60.7565 52.0906 60.321 52.5261 60.321 53.0632C60.321 53.6004 60.7565 54.0359 61.2937 54.0359Z" fill="#6626EE"/>
<path d="M35.4586 47.6446C35.4586 47.6446 34.2395 55.3075 39.2901 54.6109C39.2901 54.6109 59.3183 50.0828 60.3633 51.1277C61.4082 52.1727 67.9046 52.5284 67.5657 48.123C67.2257 43.7027 60.7116 46.2513 60.7116 46.2513C60.7116 46.2513 50.6104 47.6445 48.5205 46.5996C46.4306 45.5546 40.5092 45.9029 40.5092 45.9029L35.4586 47.6446Z" fill="#A0616A"/>
<path d="M42.5991 23.4365C42.5991 23.4365 34.762 24.3073 34.762 35.6276V50.0828L44.3407 46.0772C44.3407 46.0772 48.3463 36.6726 47.998 34.0602C47.6497 31.4478 47.8239 23.7848 42.5991 23.4365Z" fill="#E6E6E6"/>
</g>
<defs>
<clipPath id="clip0">
<rect width="250" height="151.94" fill="white"/>
</clipPath>
</defs>
</svg>
