<svg width="236" height="150" viewBox="0 0 236 150" fill="none" xmlns="http://www.w3.org/2000/svg">
<g clip-path="url(#clip0)">
<path d="M188.746 112.311H10.2339V112.944H188.746V112.311Z" fill="#3F3D56"/>
<path d="M204.515 0H0V99.5235H204.515V0Z" fill="#3F3D56"/>
<path opacity="0.1" d="M204.515 7.65566V4.92149H198.227V0H195.493V4.92149H9.02274V0H6.28858V4.92149H0V7.65566H6.28858V91.8679H0V94.6021H6.28858V99.5235H9.02274V94.6021H195.493V99.5235H198.227V94.6021H204.515V91.8679H198.227V7.65566H204.515ZM195.493 91.8679H9.02274V7.65566H195.493L195.493 91.8679Z" fill="black"/>
<path d="M122.642 13.124H90.3951V43.7984H122.642V13.124Z" fill="#D0CDE1"/>
<path d="M118.978 16.7883H94.0597V35.8434H118.978V16.7883Z" fill="#6626EE"/>
<path d="M108.279 19.9199H99.5428V28.6556H108.279V19.9199Z" fill="#F2F2F2"/>
<path d="M102.887 22.1045V32.7121H113.495V22.1045H102.887ZM113.034 32.252H103.347V22.5646H113.034V32.252Z" fill="#3F3D56"/>
<path d="M107.589 37.7349H94.0349V38.4482H107.589V37.7349Z" fill="#F2F2F2"/>
<path d="M106.519 16.3341C107.307 16.3341 107.945 15.6954 107.945 14.9074C107.945 14.1195 107.307 13.4807 106.519 13.4807C105.731 13.4807 105.092 14.1195 105.092 14.9074C105.092 15.6954 105.731 16.3341 106.519 16.3341Z" fill="#3F3D56"/>
<path d="M134.804 57.3657H102.557V88.0401H134.804V57.3657Z" fill="#D0CDE1"/>
<path d="M131.14 61.03H106.222V80.0851H131.14V61.03Z" fill="#6626EE"/>
<path d="M119.751 82.3333H106.197V83.0466H119.751V82.3333Z" fill="#F2F2F2"/>
<path d="M119.751 84.4734H106.197V85.1867H119.751V84.4734Z" fill="#F2F2F2"/>
<path d="M110.655 73.4163C112.231 73.4163 113.509 72.1388 113.509 70.5629C113.509 68.987 112.231 67.7095 110.655 67.7095C109.08 67.7095 107.802 68.987 107.802 70.5629C107.802 72.1388 109.08 73.4163 110.655 73.4163Z" fill="#3F3D56"/>
<path d="M118.681 73.4163C120.257 73.4163 121.534 72.1388 121.534 70.5629C121.534 68.987 120.257 67.7095 118.681 67.7095C117.105 67.7095 115.827 68.987 115.827 70.5629C115.827 72.1388 117.105 73.4163 118.681 73.4163Z" fill="#F2F2F2"/>
<path d="M126.706 73.4163C128.282 73.4163 129.559 72.1388 129.559 70.5629C129.559 68.987 128.282 67.7095 126.706 67.7095C125.13 67.7095 123.853 68.987 123.853 70.5629C123.853 72.1388 125.13 73.4163 126.706 73.4163Z" fill="#FF6584"/>
<path d="M118.681 60.5758C119.469 60.5758 120.107 59.9371 120.107 59.1491C120.107 58.3612 119.469 57.7224 118.681 57.7224C117.893 57.7224 117.254 58.3612 117.254 59.1491C117.254 59.9371 117.893 60.5758 118.681 60.5758Z" fill="#3F3D56"/>
<path d="M85.452 47.7815H53.205V78.4559H85.452V47.7815Z" fill="#D0CDE1"/>
<path d="M81.7876 51.4458H56.8694V70.5009H81.7876V51.4458Z" fill="#6626EE"/>
<path d="M67.6693 69.2502C71.0105 69.2502 73.719 66.5416 73.719 63.2004C73.719 59.8592 71.0105 57.1506 67.6693 57.1506C64.3281 57.1506 61.6195 59.8592 61.6195 63.2004C61.6195 66.5416 64.3281 69.2502 67.6693 69.2502Z" fill="#F2F2F2"/>
<path d="M69.4524 67.8667C67.9522 67.8667 66.4858 67.4219 65.2384 66.5884C63.9911 65.755 63.0189 64.5704 62.4448 63.1844C61.8707 61.7984 61.7205 60.2733 62.0132 58.802C62.3058 57.3307 63.0282 55.9792 64.089 54.9184C65.1498 53.8576 66.5013 53.1352 67.9727 52.8425C69.444 52.5499 70.9691 52.7001 72.3551 53.2742C73.741 53.8482 74.9257 54.8204 75.7591 56.0678C76.5926 57.3151 77.0374 58.7816 77.0374 60.2818C77.0351 62.2927 76.2353 64.2207 74.8133 65.6426C73.3913 67.0646 71.4634 67.8645 69.4524 67.8667ZM69.4524 52.9726C68.0068 52.9726 66.5936 53.4013 65.3917 54.2044C64.1897 55.0076 63.2528 56.1491 62.6996 57.4847C62.1464 58.8202 62.0017 60.2899 62.2837 61.7077C62.5657 63.1256 63.2618 64.4279 64.2841 65.4501C65.3063 66.4723 66.6086 67.1685 68.0265 67.4505C69.4443 67.7325 70.9139 67.5878 72.2495 67.0346C73.5851 66.4813 74.7266 65.5445 75.5298 64.3425C76.3329 63.1405 76.7616 61.7274 76.7616 60.2818C76.7594 58.3439 75.9886 56.4861 74.6184 55.1158C73.2481 53.7455 71.3903 52.9748 69.4524 52.9726Z" fill="#3F3D56"/>
<path d="M70.3985 74.5325H56.8447V75.2458H70.3985V74.5325Z" fill="#F2F2F2"/>
<path d="M75.7487 72.3923H56.8447V73.1057H75.7487V72.3923Z" fill="#F2F2F2"/>
<path d="M69.3285 50.9916C70.1164 50.9916 70.7552 50.3529 70.7552 49.5649C70.7552 48.7769 70.1164 48.1382 69.3285 48.1382C68.5405 48.1382 67.9017 48.7769 67.9017 49.5649C67.9017 50.3529 68.5405 50.9916 69.3285 50.9916Z" fill="#3F3D56"/>
<path d="M50.0091 12.5771H17.7621V43.2515H50.0091V12.5771Z" fill="#D0CDE1"/>
<path d="M46.3447 16.2417H21.4265V35.2968H46.3447V16.2417Z" fill="#6626EE"/>
<path d="M36.5659 31.1589H31.2053V32.7475H36.5659V31.1589Z" fill="#3F3D56"/>
<path d="M43.0466 18.7908H24.7246V19.4716H43.0466V18.7908Z" fill="#3F3D56"/>
<path d="M43.0466 20.9468H24.7246V21.6276H43.0466V20.9468Z" fill="#3F3D56"/>
<path d="M43.0466 23.1028H24.7246V23.7836H43.0466V23.1028Z" fill="#3F3D56"/>
<path d="M43.0466 25.2585H24.7246V25.9394H43.0466V25.2585Z" fill="#3F3D56"/>
<path d="M43.0466 27.4146H24.7246V28.0954H43.0466V27.4146Z" fill="#3F3D56"/>
<path d="M34.9557 37.188H21.4019V37.9013H34.9557V37.188Z" fill="#F2F2F2"/>
<path d="M40.3058 38.9714H21.4019V39.6848H40.3058V38.9714Z" fill="#F2F2F2"/>
<path d="M33.8857 15.7873C34.6737 15.7873 35.3124 15.1485 35.3124 14.3606C35.3124 13.5726 34.6737 12.9338 33.8857 12.9338C33.0977 12.9338 32.459 13.5726 32.459 14.3606C32.459 15.1485 33.0977 15.7873 33.8857 15.7873Z" fill="#3F3D56"/>
<path d="M148.816 32.6158L172.17 34.3317L178.775 34.817L178.364 34.4068L179.605 52.348L180.225 61.3185C180.25 61.681 180.276 62.0434 180.3 62.4059C180.32 62.7072 180.403 62.9976 180.046 63.0719C179.337 63.2198 178.598 63.2814 177.878 63.3722C176.417 63.5566 174.952 63.7118 173.484 63.8378C167.609 64.3421 161.704 64.3791 155.824 63.9485C154.354 63.8409 152.887 63.704 151.423 63.5377C150.879 63.4759 150.203 63.4527 150.004 62.8421C149.799 62.2125 149.764 61.4968 149.671 60.8436C149.258 57.9332 148.977 55.0079 148.827 52.0677C148.522 46.2079 148.729 40.3327 149.447 34.509C149.535 33.7959 149.632 33.0838 149.736 32.3728C149.811 31.8565 149.021 31.6336 148.945 32.1548C148.063 38.1729 147.724 44.258 147.932 50.3368C148.037 53.378 148.281 56.4103 148.662 59.4336C148.758 60.1972 148.863 60.9597 148.976 61.7211C149.066 62.3269 149.088 63.0414 149.449 63.562C149.797 64.0643 150.381 64.2254 150.955 64.302C151.686 64.3994 152.421 64.4692 153.155 64.5407C159.246 65.1346 165.375 65.2253 171.481 64.8118C173.017 64.7077 174.551 64.5718 176.083 64.404C176.837 64.3213 177.591 64.2309 178.343 64.1327C178.712 64.0847 179.08 64.035 179.448 63.9836C179.791 63.9592 180.131 63.9 180.463 63.8069C181.154 63.5577 181.154 62.8911 181.111 62.2699L180.951 59.9593L180.632 55.3381L179.344 36.7174L179.185 34.4068C179.182 34.299 179.137 34.1964 179.061 34.1202C178.985 34.0439 178.882 33.9997 178.775 33.9967L155.421 32.2808L148.816 31.7955C148.289 31.7568 148.292 32.5773 148.816 32.6158V32.6158Z" fill="#D0CDE1"/>
<path d="M158.824 42.2995C158.942 41.9864 158.646 42.6608 158.795 42.3624C158.834 42.2832 158.871 42.203 158.913 42.1249C158.997 41.9694 159.089 41.819 159.19 41.6744C159.291 41.5303 159.444 41.4747 159.146 41.7254C159.208 41.6623 159.266 41.5954 159.319 41.5252C159.458 41.3729 159.606 41.2293 159.763 41.0951C159.875 40.9986 160.088 40.9165 159.707 41.1302C159.782 41.088 159.852 41.0247 159.924 40.9763C160.072 40.8771 160.224 40.7853 160.381 40.7009C160.459 40.6587 160.538 40.6184 160.619 40.58C160.755 40.5149 160.982 40.4925 160.553 40.6023C160.737 40.5552 160.915 40.4679 161.1 40.4156C161.256 40.3711 161.415 40.3337 161.575 40.3033C161.718 40.2764 161.978 40.2967 161.489 40.308C161.577 40.306 161.666 40.2891 161.753 40.2832C161.929 40.2712 162.106 40.2685 162.283 40.2753C162.371 40.2787 162.458 40.2874 162.546 40.2927C162.839 40.3101 162.104 40.2114 162.546 40.2958C162.72 40.3287 162.891 40.372 163.06 40.4253C163.141 40.4603 163.225 40.4898 163.311 40.5134L163.084 40.4157C163.14 40.4398 163.195 40.4651 163.25 40.4916C163.412 40.5703 163.57 40.6586 163.722 40.756C163.798 40.8045 163.871 40.8571 163.945 40.9077C164.178 41.0665 163.632 40.6404 163.963 40.9307C164.076 41.0292 164.183 41.1326 164.286 41.241C164.348 41.3059 164.409 41.3725 164.467 41.4407C164.566 41.5553 164.641 41.7647 164.436 41.3894C164.623 41.7329 164.858 42.0445 165.035 42.3987C165.186 42.7007 164.898 42.0235 165.012 42.3415C165.043 42.4272 165.077 42.5119 165.106 42.5983C165.164 42.7711 165.214 42.9464 165.257 43.1241C165.299 43.3021 165.32 43.4838 165.359 43.6619C165.251 43.1717 165.33 43.4552 165.341 43.5884C165.35 43.7096 165.356 43.831 165.358 43.9526C165.361 44.1043 165.357 44.256 165.347 44.4076C165.341 44.4964 165.321 44.5908 165.323 44.6795C165.316 44.2192 165.356 44.4484 165.327 44.603C165.294 44.782 165.252 44.9591 165.2 45.1336C165.174 45.221 165.146 45.3076 165.115 45.3935C165.088 45.4696 165.059 45.5452 165.029 45.6202C165.117 45.4149 165.124 45.3954 165.05 45.5617C164.597 46.4677 164.032 47.3125 163.587 48.2217C162.481 50.4886 162.11 53.0434 162.523 55.5313C162.637 55.9439 162.908 56.2957 163.277 56.5117C163.66 56.7313 164.114 56.7907 164.541 56.6771C165.466 56.3778 165.829 55.5705 165.687 54.659C165.637 54.338 165.713 54.9453 165.68 54.622C165.666 54.4834 165.652 54.345 165.642 54.206C165.623 53.9281 165.615 53.6497 165.619 53.3709C165.622 53.1321 165.633 52.8936 165.653 52.6555C165.654 52.5158 165.668 52.3766 165.696 52.2398C165.696 52.2407 165.643 52.5696 165.679 52.3803C165.694 52.3022 165.704 52.223 165.718 52.1447C165.812 51.6155 165.949 51.0946 166.126 50.5869C166.165 50.4742 166.208 50.3629 166.25 50.2509C166.359 49.9554 166.136 50.4882 166.268 50.2021C166.386 49.9469 166.508 49.6951 166.643 49.4481C167.207 48.4106 167.846 47.4385 168.258 46.3226C168.571 45.4473 168.696 44.5153 168.622 43.5884C168.469 41.6751 167.658 39.7338 166.146 38.495C165.365 37.8446 164.441 37.3879 163.45 37.1621C162.459 36.9362 161.428 36.9476 160.442 37.1953C159.36 37.4569 158.359 37.9794 157.525 38.717C156.692 39.4547 156.052 40.3852 155.66 41.4273C155.357 42.232 155.997 43.2609 156.806 43.4453C157.739 43.6579 158.5 43.1611 158.824 42.2995V42.2995Z" fill="#D0CDE1"/>
<path d="M164.556 61.8447C164.825 61.8447 165.089 61.7647 165.313 61.6149C165.538 61.465 165.712 61.2521 165.816 61.0029C165.919 60.7537 165.946 60.4796 165.893 60.215C165.841 59.9505 165.711 59.7075 165.52 59.5168C165.329 59.3261 165.086 59.1963 164.822 59.1436C164.557 59.091 164.283 59.118 164.034 59.2212C163.785 59.3244 163.572 59.4992 163.422 59.7235C163.272 59.9477 163.192 60.2114 163.192 60.4811C163.196 60.8415 163.341 61.186 163.596 61.4409C163.851 61.6958 164.195 61.8407 164.556 61.8447Z" fill="#D0CDE1"/>
<path d="M16.6988 109.543H9.04309V117.199H16.6988V109.543Z" fill="#6626EE"/>
<path d="M21.3468 112.824H12.0507V103.528H21.3468V112.824ZM12.4548 112.42H20.9426V103.932H12.4548V112.42Z" fill="#3F3D56"/>
<path d="M187.154 68.2173L186.06 71.4983C186.06 71.4983 179.224 79.4273 184.146 80.521C189.067 81.6147 189.614 72.0451 189.614 72.0451L190.981 69.3109L187.154 68.2173Z" fill="#FFB8B8"/>
<path d="M194.809 28.5719C194.809 28.5719 193.169 28.2985 192.622 34.8605C192.075 41.4225 191.802 52.906 191.802 52.906L185.513 69.0375L193.442 71.4983L197.27 53.1794L194.809 28.5719Z" fill="#575A89"/>
<path d="M191.255 126.182L190.435 131.377H197.817L197.543 126.182H191.255Z" fill="#FFB8B8"/>
<path d="M215.042 131.923L214.495 139.032L219.417 139.579V131.376L215.042 131.923Z" fill="#FFB8B8"/>
<path d="M194.262 58.3744L187.974 94.4654L189.614 127.275H198.09V97.4729L206.293 82.1616L212.855 101.301L214.495 133.29L223.791 131.65L221.604 100.481C221.604 100.481 219.963 58.9212 218.323 58.3744C216.682 57.8276 194.262 58.3744 194.262 58.3744Z" fill="#2F2E41"/>
<path d="M192.075 129.736C192.075 129.736 192.075 127.002 189.888 128.642C187.7 130.283 184.966 133.29 184.966 133.29C184.966 133.29 174.576 139.032 181.959 139.852C189.341 140.673 193.989 136.025 193.989 136.025L194.809 136.845C194.809 136.845 199.184 136.025 199.184 134.931C199.152 134.015 199.061 133.101 198.91 132.197C198.91 132.197 198.335 127.559 197.666 128.511C196.996 129.463 193.169 131.377 192.075 129.736Z" fill="#2F2E41"/>
<path d="M219.69 137.392C219.69 137.392 214.769 134.931 213.675 137.118C212.581 139.306 211.761 143.68 211.761 143.68C211.761 143.68 208.207 150.516 214.495 149.969C220.784 149.422 220.51 145.868 220.51 145.047C220.51 144.227 220.237 142.313 220.51 141.493C220.784 140.673 219.69 137.392 219.69 137.392Z" fill="#2F2E41"/>
<path d="M208.89 17.772C213.118 17.772 216.546 14.3445 216.546 10.1164C216.546 5.88825 213.118 2.46069 208.89 2.46069C204.662 2.46069 201.234 5.88825 201.234 10.1164C201.234 14.3445 204.662 17.772 208.89 17.772Z" fill="#FFB8B8"/>
<path d="M203.832 13.8076L203.558 23.6506L213.401 22.8303V13.8076H203.832Z" fill="#FFB8B8"/>
<path d="M213.948 17.9087C213.948 17.9087 209.3 20.9163 207.933 21.4631C206.566 22.0099 203.558 19.2758 203.558 19.2758C203.558 19.2758 202.738 19.8226 202.738 20.3694C202.738 20.9163 202.191 23.1036 202.191 23.1036L195.629 44.7035L196.176 60.0148C196.176 60.0148 216.136 61.9287 218.323 59.468C220.51 57.0072 217.229 21.7365 217.229 21.7365L213.948 17.9087Z" fill="#D0CDE1"/>
<path opacity="0.1" d="M212.581 23.6506C212.581 23.6506 205.199 26.3848 202.738 23.924C202.738 23.9241 206.293 24.7443 212.581 23.6506Z" fill="black"/>
<path d="M231.994 82.9819C228.986 84.8958 219.143 87.3566 219.143 87.3566C219.143 87.3566 218.069 64.2119 214.222 60.5618C210.397 56.9281 204.152 30.732 209.768 26.1769C209.793 26.1535 209.819 26.1316 209.847 26.1113L213.401 17.9088C213.401 17.9088 213.948 17.0886 215.042 18.1822C215.927 19.1303 216.749 20.1349 217.503 21.1898L217.659 21.2527L225.158 24.1974L222.151 37.5948C222.151 37.5948 235.001 81.068 231.994 82.9819Z" fill="#575A89"/>
<path opacity="0.1" d="M217.659 21.2527L215.589 28.8455L209.768 26.1769C209.793 26.1535 209.819 26.1316 209.847 26.1113L213.401 17.9088C213.401 17.9088 213.948 17.0886 215.042 18.1822C215.927 19.1303 216.749 20.1349 217.503 21.1898L217.659 21.2527Z" fill="black"/>
<path d="M203.422 19.1392L202.602 28.4353L202.558 28.8591L196.313 88.3135C196.313 88.3135 190.845 86.3996 188.931 84.2122C187.017 82.0249 193.305 57.6909 193.305 57.6909L193.852 27.0682C193.852 27.0682 198.703 23.6533 200.685 21.7776C201.15 21.3402 201.456 20.9875 201.508 20.7797C201.781 19.686 203.422 19.1392 203.422 19.1392Z" fill="#575A89"/>
<path opacity="0.1" d="M203.422 19.1392L202.602 28.4353L202.558 28.8591L198.637 28.2986L200.685 21.7776C201.15 21.3402 201.456 20.9875 201.508 20.7797C201.781 19.686 203.422 19.1392 203.422 19.1392Z" fill="black"/>
<path d="M218.049 65.2097L215.042 67.9439C215.042 67.9439 216.409 73.6856 218.049 73.959C218.049 73.959 219.143 72.3185 219.417 70.9515C219.69 69.5844 222.151 68.2173 222.151 68.2173L218.049 65.2097Z" fill="#FFB8B8"/>
<path d="M221.604 23.6506L225.158 24.1975C225.158 24.1975 236.915 44.1569 235.548 51.2657C234.181 58.3745 223.244 70.6782 223.244 70.6782L216.409 65.2099L226.525 51.5391L221.33 35.1341L221.604 23.6506Z" fill="#575A89"/>
<path d="M201.217 10.9763C201.217 10.9763 201.217 4.22481 202.858 2.69039H204.827C204.827 2.69039 207.124 -0.685354 210.077 0.542189C213.03 1.76973 217.952 3.91793 217.624 7.29368C217.296 10.6694 216.272 12.8506 216.272 12.8506C216.272 12.8506 215.726 12.8506 214.507 11.0154C212.878 8.56319 216.64 9.32757 211.718 8.40691C206.796 7.48625 203.842 6.25871 203.186 7.48625C202.53 8.71379 201.217 10.9763 201.217 10.9763Z" fill="#2F2E41"/>
<path d="M204.794 3.1485C204.794 3.1485 205.056 1.17535 206.136 0.750488L204.794 3.1485Z" fill="#2F2E41"/>
<path d="M204.789 3.55436C204.789 3.55436 204.242 1.64068 205.062 0.820068L204.789 3.55436Z" fill="#2F2E41"/>
</g>
<defs>
<clipPath id="clip0">
<rect width="235.659" height="150" fill="white"/>
</clipPath>
</defs>
</svg>
