<svg width="155" height="150" viewBox="0 0 155 150" fill="none" xmlns="http://www.w3.org/2000/svg">
<g clip-path="url(#clip0)">
<g opacity="0.5">
<path opacity="0.5" d="M23.1452 47.1908C35.8371 47.1908 46.1259 36.902 46.1259 24.2102C46.1259 11.5183 35.8371 1.22949 23.1452 1.22949C10.4533 1.22949 0.164551 11.5183 0.164551 24.2102C0.164551 36.902 10.4533 47.1908 23.1452 47.1908Z" fill="url(#paint0_linear)"/>
</g>
<path d="M23.1452 46.58C35.5688 46.58 45.6401 36.5087 45.6401 24.0852C45.6401 11.6616 35.5688 1.59033 23.1452 1.59033C10.7217 1.59033 0.650391 11.6616 0.650391 24.0852C0.650391 36.5087 10.7217 46.58 23.1452 46.58Z" fill="#F5F5F5"/>
<path d="M23.2087 46.6435C27.6045 46.6508 31.9052 45.3639 35.5745 42.9433C34.7457 38.4142 31.5907 38.1544 31.5907 38.1544H14.1981C14.1981 38.1544 11.2236 38.3983 10.2916 42.5665C14.0732 45.2265 18.5854 46.6507 23.2087 46.6435Z" fill="#6626EE"/>
<path d="M22.9727 33.5619C28.4803 33.5619 32.9451 29.0971 32.9451 23.5896C32.9451 18.082 28.4803 13.6172 22.9727 13.6172C17.4651 13.6172 13.0004 18.082 13.0004 23.5896C13.0004 29.0971 17.4651 33.5619 22.9727 33.5619Z" fill="#333333"/>
<path opacity="0.1" d="M19.4689 32.6338H26.4271V38.2C26.4271 39.1225 26.0607 40.0071 25.4084 40.6594C24.7561 41.3117 23.8714 41.6781 22.949 41.6781C22.0265 41.6781 21.1419 41.3117 20.4896 40.6594C19.8373 40.0071 19.4709 39.1225 19.4709 38.2V32.6338H19.4689Z" fill="black"/>
<path d="M20.1331 32.376H25.7628C25.939 32.376 26.1079 32.446 26.2325 32.5705C26.3571 32.6951 26.4271 32.8641 26.4271 33.0403V37.9422C26.4271 38.8646 26.0606 39.7493 25.4084 40.4016C24.7561 41.0539 23.8714 41.4203 22.949 41.4203C22.0265 41.4203 21.1418 41.0539 20.4895 40.4016C19.8373 39.7493 19.4708 38.8646 19.4708 37.9422V33.0403C19.4708 32.8644 19.5405 32.6958 19.6647 32.5712C19.7888 32.4467 19.9573 32.3765 20.1331 32.376Z" fill="#BE7C5E"/>
<path opacity="0.1" d="M19.4827 35.2612C21.7251 36.0994 24.1937 36.1064 26.4409 35.2811V34.4264H19.4827V35.2612Z" fill="black"/>
<path d="M22.9727 35.7271C28.4803 35.7271 32.9451 31.2623 32.9451 25.7547C32.9451 20.2471 28.4803 15.7823 22.9727 15.7823C17.4651 15.7823 13.0004 20.2471 13.0004 25.7547C13.0004 31.2623 17.4651 35.7271 22.9727 35.7271Z" fill="#BE7C5E"/>
<path d="M16.9306 21.6422C17.0476 21.2119 17.1943 20.7379 17.581 20.5139C17.8864 20.3354 18.2651 20.3632 18.6181 20.381C21.3744 20.5317 24.107 19.9031 26.7879 19.2467C28.3208 18.872 29.9607 18.4159 30.9522 17.1805C31.9437 15.9451 30.6508 12.0624 29.1417 11.6044C28.1502 11.301 27.0001 11.8661 26.0602 11.4219C25.6418 11.2236 25.3344 10.8528 24.9735 10.5633C24.2339 9.96842 23.284 9.72847 22.3639 9.50242C21.2892 9.2367 20.1271 8.97693 19.1059 9.40327C18.3127 9.73244 17.7337 10.4285 16.9821 10.8409C15.5524 11.6341 13.8094 11.2653 12.1714 11.2613C11.6182 11.2613 10.9579 11.3724 10.7378 11.88C10.589 12.225 10.708 12.6177 10.7239 12.9924C10.7715 14.1822 9.7899 15.1083 8.96696 15.9669C8.14403 16.8255 7.3667 18.051 7.88624 19.1179C8.08454 19.5244 8.44742 19.8317 8.65365 20.2343C9.0086 20.9323 8.83014 21.775 8.95903 22.5464C9.08808 23.1317 9.30681 23.6936 9.60746 24.2121C10.2182 25.4019 13.2859 31.8069 14.6958 30.1789C15.3779 29.3857 15.489 27.0934 15.7646 26.0622C16.1453 24.5803 16.534 23.1069 16.9306 21.6422Z" fill="#333333"/>
<path d="M15.8776 27.1311C16.3902 27.1311 16.8056 26.3525 16.8056 25.392C16.8056 24.4316 16.3902 23.653 15.8776 23.653C15.3651 23.653 14.9496 24.4316 14.9496 25.392C14.9496 26.3525 15.3651 27.1311 15.8776 27.1311Z" fill="#BE7C5E"/>
<g opacity="0.5">
<path opacity="0.5" d="M76.3603 97.2073C89.0522 97.2073 99.341 86.9185 99.341 74.2266C99.341 61.5348 89.0522 51.246 76.3603 51.246C63.6684 51.246 53.3796 61.5348 53.3796 74.2266C53.3796 86.9185 63.6684 97.2073 76.3603 97.2073Z" fill="url(#paint1_linear)"/>
</g>
<path d="M76.4039 96.5748C88.8275 96.5748 98.8988 86.5035 98.8988 74.0799C98.8988 61.6564 88.8275 51.5851 76.4039 51.5851C63.9803 51.5851 53.9091 61.6564 53.9091 74.0799C53.9091 86.5035 63.9803 96.5748 76.4039 96.5748Z" fill="#F5F5F5"/>
<path d="M76.4238 96.664C80.8169 96.6697 85.1146 95.3829 88.7817 92.9638C87.9528 88.4347 84.7979 88.1749 84.7979 88.1749H67.4112C67.4112 88.1749 64.4368 88.4188 63.5048 92.587C67.2869 95.2474 71.7998 96.6716 76.4238 96.664Z" fill="#6626EE"/>
<path d="M76.1858 84.4647C82.1829 84.4647 87.0445 79.6031 87.0445 73.606C87.0445 67.6088 82.1829 62.7472 76.1858 62.7472C70.1887 62.7472 65.327 67.6088 65.327 73.606C65.327 79.6031 70.1887 84.4647 76.1858 84.4647Z" fill="#F55F44"/>
<path opacity="0.1" d="M72.6819 82.6503H79.6401V88.2165C79.6401 89.1389 79.2737 90.0236 78.6214 90.6759C77.9691 91.3282 77.0845 91.6946 76.162 91.6946C75.2395 91.6946 74.3549 91.3282 73.7026 90.6759C73.0503 90.0236 72.6839 89.1389 72.6839 88.2165V82.6503H72.6819Z" fill="black"/>
<path d="M73.3461 82.3925H78.9758C79.063 82.3925 79.1494 82.4096 79.23 82.443C79.3106 82.4764 79.3838 82.5253 79.4455 82.587C79.5072 82.6487 79.5561 82.7219 79.5895 82.8025C79.6229 82.8831 79.6401 82.9695 79.6401 83.0568V87.9587C79.6401 88.4154 79.5501 88.8677 79.3753 89.2897C79.2006 89.7117 78.9444 90.0951 78.6214 90.4181C78.2984 90.7411 77.915 90.9972 77.493 91.172C77.071 91.3468 76.6187 91.4368 76.162 91.4368C75.7052 91.4368 75.2529 91.3468 74.8309 91.172C74.409 90.9972 74.0255 90.7411 73.7026 90.4181C73.3796 90.0951 73.1234 89.7117 72.9486 89.2897C72.7738 88.8677 72.6838 88.4154 72.6838 87.9587V83.0568C72.6838 82.8806 72.7538 82.7116 72.8784 82.587C73.003 82.4624 73.172 82.3925 73.3481 82.3925H73.3461Z" fill="#FDA57D"/>
<path opacity="0.1" d="M72.6958 85.2777C74.9383 86.1158 77.4068 86.1229 79.654 85.2975V84.4429H72.6958V85.2777Z" fill="black"/>
<path d="M76.1859 85.7437C81.6935 85.7437 86.1582 81.2789 86.1582 75.7713C86.1582 70.2637 81.6935 65.799 76.1859 65.799C70.6783 65.799 66.2135 70.2637 66.2135 75.7713C66.2135 81.2789 70.6783 85.7437 76.1859 85.7437Z" fill="#FDA57D"/>
<path d="M76.1719 66.5743C78.3885 66.5743 80.1854 64.7774 80.1854 62.5608C80.1854 60.3442 78.3885 58.5472 76.1719 58.5472C73.9552 58.5472 72.1583 60.3442 72.1583 62.5608C72.1583 64.7774 73.9552 66.5743 76.1719 66.5743Z" fill="#F55F44"/>
<path d="M76.172 61.2441C77.6275 61.2441 78.8074 60.0642 78.8074 58.6088C78.8074 57.1533 77.6275 55.9734 76.172 55.9734C74.7165 55.9734 73.5366 57.1533 73.5366 58.6088C73.5366 60.0642 74.7165 61.2441 76.172 61.2441Z" fill="#F55F44"/>
<path d="M74.4308 64.7619C73.4892 64.3396 72.7465 63.5707 72.3569 62.615C71.9673 61.6593 71.9608 60.5903 72.3388 59.63C72.311 59.6855 72.2833 59.743 72.2575 59.8005C72.0417 60.2815 71.9228 60.8003 71.9076 61.3272C71.8923 61.8541 71.981 62.3789 72.1685 62.8716C72.3561 63.3642 72.6388 63.8151 73.0006 64.1985C73.3624 64.5819 73.7962 64.8902 74.2771 65.106C74.7581 65.3217 75.2769 65.4406 75.8038 65.4559C76.3307 65.4712 76.8555 65.3825 77.3481 65.195C77.8408 65.0074 78.2917 64.7247 78.6751 64.3629C79.0585 64.0011 79.3668 63.5673 79.5826 63.0863C79.6084 63.0288 79.6322 62.9713 79.656 62.9118C79.1901 63.833 78.3871 64.5392 77.4141 64.8838C76.441 65.2283 75.3726 65.1847 74.4308 64.7619Z" fill="#F55F44"/>
<path opacity="0.1" d="M69.0848 66.7012C69.0848 66.7012 73.2868 75.228 85.1469 70.2706L82.3866 65.9417L77.4946 64.1848L69.0848 66.7012Z" fill="black"/>
<path d="M69.0848 66.5744C69.0848 66.5744 73.2868 75.1012 85.1469 70.1437L82.3866 65.8149L77.4946 64.058L69.0848 66.5744Z" fill="#F55F44"/>
<path d="M72.323 63.4691C74.9088 63.2657 77.5065 63.2657 80.0923 63.4691C80.0923 63.4691 74.3536 64.0025 72.323 63.4691Z" fill="#333333"/>
<path d="M76.7748 55.8127C76.5754 55.8054 76.3759 55.8207 76.1799 55.8583H76.3326C76.9816 55.8791 77.6001 56.1389 78.0693 56.5879C78.5384 57.0369 78.8251 57.6434 78.8742 58.2909C78.9234 58.9384 78.7316 59.5812 78.3357 60.0959C77.9398 60.6106 77.3677 60.9609 76.7292 61.0795C77.4276 61.0858 78.0999 60.8144 78.5983 60.325C79.0966 59.8356 79.3801 59.1683 79.3864 58.4699C79.3927 57.7715 79.1213 57.0991 78.6319 56.6008C78.1425 56.1025 77.4752 55.819 76.7768 55.8127H76.7748Z" fill="#F55F44"/>
<path d="M66.2115 77.5005C66.724 77.5005 67.1395 76.7219 67.1395 75.7614C67.1395 74.8009 66.724 74.0223 66.2115 74.0223C65.6989 74.0223 65.2834 74.8009 65.2834 75.7614C65.2834 76.7219 65.6989 77.5005 66.2115 77.5005Z" fill="#FDA57D"/>
<path d="M86.1581 77.5005C86.6707 77.5005 87.0862 76.7219 87.0862 75.7614C87.0862 74.8009 86.6707 74.0223 86.1581 74.0223C85.6456 74.0223 85.2301 74.8009 85.2301 75.7614C85.2301 76.7219 85.6456 77.5005 86.1581 77.5005Z" fill="#FDA57D"/>
<path d="M68.4562 66.8263L70.4015 65.8229L70.8397 67.4311L69.6479 68.2421L68.4562 66.8263Z" fill="#F55F44"/>
<g opacity="0.5">
<path opacity="0.5" d="M76.3386 46.0625C89.0305 46.0625 99.3193 35.7737 99.3193 23.0819C99.3193 10.39 89.0305 0.101196 76.3386 0.101196C63.6467 0.101196 53.3579 10.39 53.3579 23.0819C53.3579 35.7737 63.6467 46.0625 76.3386 46.0625Z" fill="url(#paint2_linear)"/>
</g>
<path d="M76.3385 45.4517C88.762 45.4517 98.8333 35.3804 98.8333 22.9569C98.8333 10.5333 88.762 0.462036 76.3385 0.462036C63.9149 0.462036 53.8436 10.5333 53.8436 22.9569C53.8436 35.3804 63.9149 45.4517 76.3385 45.4517Z" fill="#F5F5F5"/>
<path d="M67.5639 23.1572C67.5639 23.1572 65.0138 35.7213 63.6217 35.0253C63.6217 35.0253 77.0464 46.6217 88.9006 35.0253C88.9006 35.0253 86.8126 26.1713 83.7984 23.1572H67.5639Z" fill="#333333"/>
<path d="M76.402 45.5191C80.7978 45.5264 85.0985 44.2395 88.7678 41.8189C87.9389 37.2898 84.784 37.03 84.784 37.03H67.3894C67.3894 37.03 64.4149 37.2739 63.4829 41.4421C67.265 44.1025 71.778 45.5267 76.402 45.5191Z" fill="#6626EE"/>
<path d="M76.164 32.4335C81.6716 32.4335 86.1364 27.9687 86.1364 22.4611C86.1364 16.9536 81.6716 12.4888 76.164 12.4888C70.6564 12.4888 66.1917 16.9536 66.1917 22.4611C66.1917 27.9687 70.6564 32.4335 76.164 32.4335Z" fill="#333333"/>
<path opacity="0.1" d="M72.6602 31.5055H79.6184V37.0717C79.6184 37.9931 79.2528 38.8769 78.6018 39.529C77.9508 40.1811 77.0676 40.5483 76.1462 40.5498C75.2238 40.5498 74.3391 40.1834 73.6868 39.5311C73.0345 38.8788 72.6681 37.9942 72.6681 37.0717V31.5055H72.6602Z" fill="black"/>
<path d="M73.3243 31.2477H78.954C79.1302 31.2477 79.2991 31.3177 79.4237 31.4422C79.5483 31.5668 79.6183 31.7358 79.6183 31.912V36.8139C79.6183 37.7353 79.2527 38.6191 78.6017 39.2712C77.9507 39.9233 77.0675 40.2904 76.1461 40.292C75.2236 40.292 74.339 39.9256 73.6867 39.2733C73.0344 38.621 72.668 37.7363 72.668 36.8139V31.91C72.6685 31.7355 72.7376 31.5683 72.8604 31.4443C72.9832 31.3204 73.1499 31.2498 73.3243 31.2477Z" fill="#BE7C5E"/>
<path opacity="0.1" d="M72.674 34.1329C74.9164 34.9711 77.385 34.9781 79.6322 34.1528V33.2981H72.674V34.1329Z" fill="black"/>
<path d="M76.164 34.597C81.6716 34.597 86.1364 30.1322 86.1364 24.6246C86.1364 19.117 81.6716 14.6522 76.164 14.6522C70.6564 14.6522 66.1917 19.117 66.1917 24.6246C66.1917 30.1322 70.6564 34.597 76.164 34.597Z" fill="#BE7C5E"/>
<path d="M66.6318 20.8371H85.6485C85.6485 20.8371 84.0245 13.159 76.8362 13.6488C69.6479 14.1386 66.6318 20.8371 66.6318 20.8371Z" fill="#333333"/>
<path d="M66.3979 25.9392C66.9104 25.9392 67.3259 25.1606 67.3259 24.2001C67.3259 23.2397 66.9104 22.4611 66.3979 22.4611C65.8853 22.4611 65.4698 23.2397 65.4698 24.2001C65.4698 25.1606 65.8853 25.9392 66.3979 25.9392Z" fill="#BE7C5E"/>
<path d="M85.8786 25.9392C86.3911 25.9392 86.8066 25.1606 86.8066 24.2001C86.8066 23.2397 86.3911 22.4611 85.8786 22.4611C85.3661 22.4611 84.9506 23.2397 84.9506 24.2001C84.9506 25.1606 85.3661 25.9392 85.8786 25.9392Z" fill="#BE7C5E"/>
<path opacity="0.1" d="M66.6318 21.0949H85.6485C85.6485 21.0949 84.0245 13.4168 76.8362 13.9066C69.6479 14.3964 66.6318 21.0949 66.6318 21.0949Z" fill="black"/>
<g opacity="0.5">
<path opacity="0.5" d="M131.12 45.9613C143.812 45.9613 154.101 35.6726 154.101 22.9807C154.101 10.2888 143.812 0 131.12 0C118.428 0 108.139 10.2888 108.139 22.9807C108.139 35.6726 118.428 45.9613 131.12 45.9613Z" fill="url(#paint3_linear)"/>
</g>
<path d="M131.164 45.3268C143.587 45.3268 153.659 35.2556 153.659 22.832C153.659 10.4084 143.587 0.337158 131.164 0.337158C118.74 0.337158 108.669 10.4084 108.669 22.832C108.669 35.2556 118.74 45.3268 131.164 45.3268Z" fill="#F5F5F5"/>
<path d="M131.184 45.418C135.579 45.4252 139.88 44.1383 143.549 41.7177C142.719 37.1867 139.566 36.9269 139.566 36.9269H122.173C122.173 36.9269 119.198 37.1708 118.266 41.339C122.048 43.9996 126.56 45.4245 131.184 45.418Z" fill="#6626EE"/>
<path d="M130.948 33.2168C136.945 33.2168 141.806 28.3552 141.806 22.358C141.806 16.3609 136.945 11.4993 130.948 11.4993C124.951 11.4993 120.089 16.3609 120.089 22.358C120.089 28.3552 124.951 33.2168 130.948 33.2168Z" fill="#72351C"/>
<path opacity="0.1" d="M127.442 31.4023H134.4V36.9685C134.401 37.4258 134.311 37.8787 134.137 38.3014C133.963 38.7241 133.706 39.1082 133.383 39.4318C133.06 39.7554 132.677 40.0121 132.254 40.1873C131.832 40.3625 131.379 40.4526 130.922 40.4526C129.999 40.4526 129.115 40.0862 128.462 39.4339C127.81 38.7816 127.444 37.897 127.444 36.9745V31.4023H127.442Z" fill="black"/>
<path d="M128.1 31.1445H133.73C133.906 31.1445 134.075 31.2145 134.199 31.3391C134.324 31.4637 134.394 31.6326 134.394 31.8088V36.7107C134.394 37.6332 134.028 38.5179 133.375 39.1702C132.723 39.8224 131.838 40.1889 130.916 40.1889C129.993 40.1889 129.109 39.8224 128.456 39.1702C127.804 38.5179 127.438 37.6332 127.438 36.7107V31.8088C127.438 31.6326 127.508 31.4637 127.632 31.3391C127.757 31.2145 127.926 31.1445 128.102 31.1445H128.1Z" fill="#FDA57D"/>
<path opacity="0.1" d="M127.45 34.0298C129.692 34.8679 132.161 34.8749 134.408 34.0496V33.1949H127.45V34.0298Z" fill="black"/>
<path d="M130.948 34.4958C136.455 34.4958 140.92 30.031 140.92 24.5234C140.92 19.0158 136.455 14.551 130.948 14.551C125.44 14.551 120.975 19.0158 120.975 24.5234C120.975 30.031 125.44 34.4958 130.948 34.4958Z" fill="#FDA57D"/>
<path opacity="0.1" d="M123.845 15.4533C123.845 15.4533 128.047 23.9801 139.907 19.0226L137.146 14.6938L132.254 12.9369L123.845 15.4533Z" fill="black"/>
<path d="M123.845 15.3283C123.845 15.3283 128.047 23.8551 139.907 18.8976L137.146 14.5688L132.254 12.8119L123.845 15.3283Z" fill="#72351C"/>
<path d="M123.807 14.7513C124.09 13.8742 124.58 13.0779 125.235 12.4292C127.196 10.4899 130.412 10.0814 132.062 7.86841C132.152 8.02503 132.207 8.1987 132.226 8.37822C132.244 8.55775 132.225 8.73912 132.169 8.91066C132.113 9.08219 132.021 9.24006 131.9 9.37409C131.78 9.50812 131.632 9.61532 131.467 9.68878C133.054 9.67886 134.88 9.54005 135.772 8.23922C135.993 8.75327 136.064 9.31942 135.975 9.87191C135.887 10.4244 135.644 10.9406 135.274 11.3604C136.674 11.4239 138.17 12.3737 138.261 13.7737C138.32 14.7057 137.737 15.5881 136.97 16.1235C136.202 16.6589 135.278 16.8989 134.366 17.0972C131.705 17.6921 122.07 20.1529 123.807 14.7513Z" fill="#72351C"/>
<path d="M140.92 24.6106H140.656L135.512 29.1932C130.555 26.8732 126.918 29.1932 126.918 29.1932L121.525 24.8029L120.981 24.8704C121.055 27.4878 122.155 29.9713 124.044 31.7845C125.933 33.5978 128.459 34.5953 131.078 34.5618C133.696 34.5282 136.196 33.4661 138.038 31.605C139.88 29.7439 140.916 27.233 140.922 24.6146L140.92 24.6106ZM130.934 30.9462C128.994 30.9462 127.422 30.5496 127.422 30.0677C127.422 29.5859 128.994 29.1893 130.934 29.1893C132.873 29.1893 134.446 29.5859 134.446 30.0677C134.446 30.5496 132.873 30.9462 130.932 30.9462H130.934Z" fill="#72351C"/>
<path d="M120.971 26.2525C121.484 26.2525 121.899 25.4739 121.899 24.5135C121.899 23.553 121.484 22.7744 120.971 22.7744C120.459 22.7744 120.043 23.553 120.043 24.5135C120.043 25.4739 120.459 26.2525 120.971 26.2525Z" fill="#FDA57D"/>
<path d="M140.918 26.2525C141.431 26.2525 141.846 25.4739 141.846 24.5135C141.846 23.553 141.431 22.7744 140.918 22.7744C140.405 22.7744 139.99 23.553 139.99 24.5135C139.99 25.4739 140.405 26.2525 140.918 26.2525Z" fill="#FDA57D"/>
<g opacity="0.5">
<path opacity="0.5" d="M22.9807 95.7023C35.6726 95.7023 45.9613 85.4135 45.9613 72.7216C45.9613 60.0298 35.6726 49.741 22.9807 49.741C10.2888 49.741 0 60.0298 0 72.7216C0 85.4135 10.2888 95.7023 22.9807 95.7023Z" fill="url(#paint4_linear)"/>
</g>
<path d="M23.0243 95.0697C35.4478 95.0697 45.5191 84.9984 45.5191 72.5748C45.5191 60.1512 35.4478 50.08 23.0243 50.08C10.6007 50.08 0.529419 60.1512 0.529419 72.5748C0.529419 84.9984 10.6007 95.0697 23.0243 95.0697Z" fill="#F5F5F5"/>
<path d="M23.0441 95.1589C27.4392 95.1658 31.7391 93.8789 35.4079 91.4587C34.579 86.9296 31.4241 86.6698 31.4241 86.6698H14.0235C14.0235 86.6698 11.0491 86.9137 10.1171 91.0819C13.9014 93.7438 18.4173 95.1681 23.0441 95.1589Z" fill="#6626EE"/>
<path d="M22.8062 82.9596C28.8033 82.9596 33.6649 78.098 33.6649 72.1008C33.6649 66.1037 28.8033 61.2421 22.8062 61.2421C16.809 61.2421 11.9474 66.1037 11.9474 72.1008C11.9474 78.098 16.809 82.9596 22.8062 82.9596Z" fill="#333333"/>
<path opacity="0.1" d="M19.3022 81.1453H26.2605V86.7115C26.2605 87.6339 25.8941 88.5186 25.2418 89.1709C24.5895 89.8232 23.7048 90.1896 22.7824 90.1896C21.8599 90.1896 20.9752 89.8232 20.323 89.1709C19.6707 88.5186 19.3042 87.6339 19.3042 86.7115V81.1453H19.3022Z" fill="black"/>
<path d="M19.9665 80.8875H25.5962C25.7724 80.8875 25.9413 80.9575 26.0659 81.0821C26.1905 81.2066 26.2605 81.3756 26.2605 81.5518V86.4577C26.2605 87.3801 25.8941 88.2648 25.2418 88.9171C24.5895 89.5693 23.7048 89.9358 22.7824 89.9358C22.3254 89.9361 21.8729 89.8463 21.4507 89.6716C21.0285 89.4969 20.6449 89.2408 20.3217 88.9178C19.9985 88.5948 19.7421 88.2113 19.5672 87.7891C19.3923 87.367 19.3022 86.9146 19.3022 86.4577V81.5498C19.3022 81.3736 19.3722 81.2046 19.4968 81.0801C19.6214 80.9555 19.7904 80.8855 19.9665 80.8855V80.8875Z" fill="#FDB797"/>
<path opacity="0.1" d="M19.3162 83.7727C21.5586 84.6108 24.0272 84.6178 26.2744 83.7925V82.9319H19.3162V83.7727Z" fill="black"/>
<path d="M22.8062 84.2387C28.3138 84.2387 32.7786 79.7739 32.7786 74.2663C32.7786 68.7587 28.3138 64.2939 22.8062 64.2939C17.2986 64.2939 12.8339 68.7587 12.8339 74.2663C12.8339 79.7739 17.2986 84.2387 22.8062 84.2387Z" fill="#FDB797"/>
<path opacity="0.1" d="M15.7052 65.1943C15.7052 65.1943 19.9071 73.721 31.7673 68.7636L29.007 64.4348L24.115 62.6779L15.7052 65.1943Z" fill="black"/>
<path d="M15.7052 65.0694C15.7052 65.0694 19.9071 73.5961 31.7673 68.6387L29.007 64.3099L24.115 62.553L15.7052 65.0694Z" fill="#333333"/>
<path d="M15.6674 64.4903C15.9507 63.6132 16.4403 62.8169 17.0952 62.1683C19.0563 60.2289 22.2727 59.8204 23.9225 57.6074C24.0122 57.764 24.068 57.9377 24.0864 58.1172C24.1047 58.2968 24.0853 58.4781 24.0292 58.6497C23.9732 58.8212 23.8818 58.9791 23.7609 59.1131C23.6401 59.2471 23.4925 59.3543 23.3276 59.4278C24.914 59.4179 26.7403 59.2791 27.6327 57.9782C27.8535 58.4923 27.924 59.0584 27.8359 59.6109C27.7478 60.1634 27.5047 60.6796 27.135 61.0994C28.5349 61.1629 30.0301 62.1127 30.1213 63.5127C30.1808 64.4447 29.5978 65.3271 28.8304 65.8625C28.063 66.3979 27.1369 66.6418 26.2248 66.8441C23.5636 67.435 13.9303 69.8959 15.6674 64.4903Z" fill="#333333"/>
<path d="M12.8299 75.9955C13.3424 75.9955 13.7579 75.2169 13.7579 74.2564C13.7579 73.2959 13.3424 72.5173 12.8299 72.5173C12.3173 72.5173 11.9019 73.2959 11.9019 74.2564C11.9019 75.2169 12.3173 75.9955 12.8299 75.9955Z" fill="#FDB797"/>
<path d="M32.7765 75.9955C33.2891 75.9955 33.7046 75.2169 33.7046 74.2564C33.7046 73.2959 33.2891 72.5173 32.7765 72.5173C32.264 72.5173 31.8485 73.2959 31.8485 74.2564C31.8485 75.2169 32.264 75.9955 32.7765 75.9955Z" fill="#FDB797"/>
<g opacity="0.5">
<path opacity="0.5" d="M131.977 98.2504C144.669 98.2504 154.957 87.9616 154.957 75.2697C154.957 62.5779 144.669 52.2891 131.977 52.2891C119.285 52.2891 108.996 62.5779 108.996 75.2697C108.996 87.9616 119.285 98.2504 131.977 98.2504Z" fill="url(#paint5_linear)"/>
</g>
<path d="M131.977 97.6396C144.4 97.6396 154.472 87.5683 154.472 75.1447C154.472 62.7212 144.4 52.6499 131.977 52.6499C119.553 52.6499 109.482 62.7212 109.482 75.1447C109.482 87.5683 119.553 97.6396 131.977 97.6396Z" fill="#F5F5F5"/>
<path d="M132.04 97.707C136.436 97.7142 140.737 96.4273 144.406 94.0068C143.577 89.4777 140.422 89.2179 140.422 89.2179H123.028C123.028 89.2179 120.053 89.4618 119.121 93.63C122.903 96.2903 127.416 97.7145 132.04 97.707Z" fill="#6626EE"/>
<path opacity="0.1" d="M128.298 83.6934H135.257V89.2596C135.257 90.182 134.89 91.0667 134.238 91.719C133.586 92.3712 132.701 92.7377 131.778 92.7377C131.322 92.7379 130.869 92.6482 130.447 92.4735C130.025 92.2988 129.641 92.0427 129.318 91.7197C128.995 91.3967 128.738 91.0131 128.563 90.591C128.388 90.1689 128.298 89.7165 128.298 89.2596V83.6934Z" fill="black"/>
<path d="M128.963 83.4355H134.592C134.768 83.4355 134.937 83.5055 135.062 83.6301C135.187 83.7547 135.257 83.9237 135.257 84.0998V89.0017C135.257 89.9242 134.89 90.8089 134.238 91.4611C133.586 92.1134 132.701 92.4799 131.778 92.4799C131.322 92.4801 130.869 92.3904 130.447 92.2157C130.025 92.041 129.641 91.7848 129.318 91.4618C128.995 91.1388 128.738 90.7553 128.563 90.3332C128.388 89.9111 128.298 89.4587 128.298 89.0017V84.0998C128.298 83.9237 128.368 83.7547 128.493 83.6301C128.617 83.5055 128.786 83.4355 128.963 83.4355Z" fill="#FDB797"/>
<path opacity="0.1" d="M128.312 86.3208C130.555 87.1589 133.023 87.166 135.271 86.3406V85.486H128.312V86.3208Z" fill="black"/>
<path d="M131.802 86.7868C137.31 86.7868 141.775 82.322 141.775 76.8144C141.775 71.3068 137.31 66.842 131.802 66.842C126.295 66.842 121.83 71.3068 121.83 76.8144C121.83 82.322 126.295 86.7868 131.802 86.7868Z" fill="#FDB797"/>
<path d="M122.036 78.1272C122.549 78.1272 122.964 77.3486 122.964 76.3881C122.964 75.4277 122.549 74.649 122.036 74.649C121.524 74.649 121.108 75.4277 121.108 76.3881C121.108 77.3486 121.524 78.1272 122.036 78.1272Z" fill="#FDB797"/>
<path d="M141.517 78.1272C142.029 78.1272 142.445 77.3486 142.445 76.3881C142.445 75.4277 142.029 74.649 141.517 74.649C141.004 74.649 140.589 75.4277 140.589 76.3881C140.589 77.3486 141.004 78.1272 141.517 78.1272Z" fill="#FDB797"/>
<path d="M129.129 76.8621H126.589C126.113 76.8621 125.726 77.2483 125.726 77.7247V78.1331C125.726 78.6095 126.113 78.9957 126.589 78.9957H129.129C129.606 78.9957 129.992 78.6095 129.992 78.1331V77.7247C129.992 77.2483 129.606 76.8621 129.129 76.8621Z" stroke="#333333" stroke-width="2" stroke-miterlimit="10"/>
<path d="M134.477 78.9937H137.017C137.494 78.9937 137.88 78.6075 137.88 78.1311V77.7226C137.88 77.2462 137.494 76.86 137.017 76.86H134.477C134.001 76.86 133.615 77.2462 133.615 77.7226V78.1311C133.615 78.6075 134.001 78.9937 134.477 78.9937Z" stroke="#333333" stroke-width="2" stroke-miterlimit="10"/>
<path d="M129.829 77.0683C129.829 77.0683 131.182 76.3346 133.696 77.0683" stroke="#333333" stroke-width="2" stroke-miterlimit="10"/>
<path d="M138.697 69.5865L141.144 75.2717C141.144 75.2717 144.136 71.5001 138.697 69.5865Z" fill="#858585"/>
<path d="M137.88 77.9287L141.533 74.6667" stroke="#333333" stroke-width="2" stroke-linecap="round" stroke-linejoin="round"/>
<path d="M124.911 69.5865L122.464 75.2717C122.464 75.2717 119.472 71.5001 124.911 69.5865Z" fill="#858585"/>
<path d="M125.726 77.9287L122.024 74.6667" stroke="#333333" stroke-width="2" stroke-linecap="round" stroke-linejoin="round"/>
<g opacity="0.5">
<path opacity="0.5" d="M23.1452 147.365C35.8371 147.365 46.1259 137.076 46.1259 124.384C46.1259 111.692 35.8371 101.403 23.1452 101.403C10.4533 101.403 0.164551 111.692 0.164551 124.384C0.164551 137.076 10.4533 147.365 23.1452 147.365Z" fill="url(#paint6_linear)"/>
</g>
<path d="M23.1452 146.754C35.5688 146.754 45.6401 136.683 45.6401 124.259C45.6401 111.835 35.5688 101.764 23.1452 101.764C10.7217 101.764 0.650391 111.835 0.650391 124.259C0.650391 136.683 10.7217 146.754 23.1452 146.754Z" fill="#F5F5F5"/>
<path d="M35.5884 126.282C35.5884 134.566 30.1828 143.789 23.514 143.789C16.8453 143.789 11.4457 134.566 11.4457 126.282C11.4457 117.997 16.8513 113.789 23.52 113.789C30.1887 113.789 35.5884 117.999 35.5884 126.282Z" fill="#FDD835"/>
<path d="M23.2087 146.823C27.6045 146.831 31.9052 145.544 35.5745 143.123C34.7457 138.594 31.5907 138.334 31.5907 138.334H14.1981C14.1981 138.334 11.2236 138.578 10.2916 142.746C14.0732 145.406 18.5854 146.83 23.2087 146.823Z" fill="#6626EE"/>
<path opacity="0.1" d="M19.4689 132.808H26.4271V138.374C26.4271 139.296 26.0607 140.181 25.4084 140.833C24.7561 141.486 23.8714 141.852 22.949 141.852C22.0265 141.852 21.1419 141.486 20.4896 140.833C19.8373 140.181 19.4709 139.296 19.4709 138.374V132.808H19.4689Z" fill="black"/>
<path d="M20.1331 132.55H25.7628C25.939 132.55 26.1079 132.62 26.2325 132.744C26.3571 132.869 26.4271 133.038 26.4271 133.214V138.116C26.4271 139.038 26.0606 139.923 25.4084 140.575C24.7561 141.228 23.8714 141.594 22.949 141.594C22.0265 141.594 21.1418 141.228 20.4895 140.575C19.8373 139.923 19.4708 139.038 19.4708 138.116V133.214C19.4708 133.038 19.5405 132.87 19.6647 132.745C19.7888 132.621 19.9573 132.55 20.1331 132.55Z" fill="#FDB797"/>
<path opacity="0.1" d="M19.4827 135.435C21.7251 136.273 24.1937 136.28 26.4409 135.455V134.6H19.4827V135.435Z" fill="black"/>
<path d="M22.9727 135.901C28.4803 135.901 32.9451 131.436 32.9451 125.929C32.9451 120.421 28.4803 115.956 22.9727 115.956C17.4651 115.956 13.0004 120.421 13.0004 125.929C13.0004 131.436 17.4651 135.901 22.9727 135.901Z" fill="#FDB797"/>
<path d="M13.2066 127.242C13.7191 127.242 14.1346 126.463 14.1346 125.503C14.1346 124.542 13.7191 123.763 13.2066 123.763C12.6941 123.763 12.2786 124.542 12.2786 125.503C12.2786 126.463 12.6941 127.242 13.2066 127.242Z" fill="#FDB797"/>
<path d="M32.6873 127.242C33.1998 127.242 33.6153 126.463 33.6153 125.503C33.6153 124.542 33.1998 123.763 32.6873 123.763C32.1748 123.763 31.7593 124.542 31.7593 125.503C31.7593 126.463 32.1748 127.242 32.6873 127.242Z" fill="#FDB797"/>
<path opacity="0.1" d="M14.1366 120.519C14.1366 120.519 19.7742 128.235 32.7032 125.6C32.7032 125.6 34.1468 123.843 30.633 118.449C27.1191 113.055 17.3351 113.934 14.1366 120.519Z" fill="black"/>
<path d="M14.1366 120.394C14.1366 120.394 19.7742 128.11 32.7032 125.475C32.7032 125.475 34.1468 123.718 30.633 118.324C27.1191 112.93 17.3351 113.809 14.1366 120.394Z" fill="#FDD835"/>
<g opacity="0.5">
<path opacity="0.5" d="M77.7385 150C90.4303 150 100.719 139.711 100.719 127.019C100.719 114.327 90.4303 104.039 77.7385 104.039C65.0466 104.039 54.7578 114.327 54.7578 127.019C54.7578 139.711 65.0466 150 77.7385 150Z" fill="url(#paint7_linear)"/>
</g>
<path d="M77.7842 149.367C90.2077 149.367 100.279 139.296 100.279 126.873C100.279 114.449 90.2077 104.378 77.7842 104.378C65.3606 104.378 55.2893 114.449 55.2893 126.873C55.2893 139.296 65.3606 149.367 77.7842 149.367Z" fill="#F5F5F5"/>
<path d="M90.1598 129.09C90.1598 136.573 84.784 140.256 77.8019 140.256C70.8199 140.256 64.8809 136.573 64.8809 129.09C64.8809 121.606 70.5403 115.54 77.5203 115.54C84.5004 115.54 90.1598 121.6 90.1598 129.09Z" fill="#333333"/>
<path d="M77.802 149.457C82.1985 149.464 86.4999 148.177 90.1698 145.756C89.3409 141.227 86.186 140.968 86.186 140.968H68.7913C68.7913 140.968 65.8169 141.211 64.8849 145.38C68.6664 148.04 73.1786 149.464 77.802 149.457Z" fill="#6626EE"/>
<path opacity="0.1" d="M74.0621 135.437H81.0204V141.003C81.0211 141.461 80.9315 141.915 80.7566 142.338C80.5816 142.761 80.3248 143.146 80.0009 143.469C79.677 143.793 79.2924 144.05 78.8691 144.224C78.4458 144.399 77.9922 144.488 77.5343 144.487C76.6118 144.487 75.7272 144.121 75.0749 143.469C74.4226 142.816 74.0562 141.932 74.0562 141.009V135.437H74.0621Z" fill="black"/>
<path d="M74.7244 135.185H80.3541C80.5302 135.185 80.6992 135.255 80.8238 135.38C80.9484 135.504 81.0184 135.673 81.0184 135.849V140.751C81.0184 141.209 80.9282 141.661 80.753 142.084C80.5779 142.506 80.3211 142.89 79.9975 143.213C79.6739 143.536 79.2898 143.792 78.8671 143.966C78.4445 144.141 77.9915 144.23 77.5343 144.229C76.6118 144.229 75.7272 143.863 75.0749 143.211C74.4226 142.558 74.0562 141.674 74.0562 140.751V135.847C74.0562 135.671 74.1261 135.502 74.2507 135.378C74.3753 135.253 74.5443 135.183 74.7204 135.183L74.7244 135.185Z" fill="#FDA57D"/>
<path opacity="0.1" d="M74.0759 138.07C76.3184 138.909 78.7869 138.916 81.0342 138.09V137.236H74.0759V138.07Z" fill="black"/>
<path d="M77.566 138.534C83.0736 138.534 87.5384 134.07 87.5384 128.562C87.5384 123.055 83.0736 118.59 77.566 118.59C72.0584 118.59 67.5936 123.055 67.5936 128.562C67.5936 134.07 72.0584 138.534 77.566 138.534Z" fill="#FDA57D"/>
<path opacity="0.1" d="M66.0726 129.215C66.0726 129.215 72.2833 128.461 76.979 122.441C76.979 122.441 83.1897 129.278 87.5165 128.524C87.5165 128.524 90.025 125.889 87.5165 123.256C85.008 120.622 83.0627 117.297 79.7393 117.735C76.4158 118.173 72.3368 118.362 70.5819 119.93C68.827 121.499 66.0726 129.215 66.0726 129.215Z" fill="black"/>
<path d="M66.0726 129.089C66.0726 129.089 72.2833 128.336 76.979 122.316C76.979 122.316 83.1897 129.153 87.5165 128.399C87.5165 128.399 90.025 125.764 87.5165 123.131C85.008 120.497 83.0627 117.172 79.7393 117.61C76.4158 118.048 72.3448 118.229 70.5898 119.815C68.8349 121.401 66.0726 129.089 66.0726 129.089Z" fill="#333333"/>
<path d="M67.5896 130.293C68.1022 130.293 68.5177 129.515 68.5177 128.554C68.5177 127.594 68.1022 126.815 67.5896 126.815C67.0771 126.815 66.6616 127.594 66.6616 128.554C66.6616 129.515 67.0771 130.293 67.5896 130.293Z" fill="#FDA57D"/>
<path d="M87.5364 130.293C88.049 130.293 88.4644 129.515 88.4644 128.554C88.4644 127.594 88.049 126.815 87.5364 126.815C87.0239 126.815 86.6084 127.594 86.6084 128.554C86.6084 129.515 87.0239 130.293 87.5364 130.293Z" fill="#FDA57D"/>
</g>
<defs>
<linearGradient id="paint0_linear" x1="23.1452" y1="47.1908" x2="23.1452" y2="1.23148" gradientUnits="userSpaceOnUse">
<stop stop-color="#808080" stop-opacity="0.25"/>
<stop offset="0.54" stop-color="#808080" stop-opacity="0.12"/>
<stop offset="1" stop-color="#808080" stop-opacity="0.1"/>
</linearGradient>
<linearGradient id="paint1_linear" x1="17752.2" y1="22582" x2="17752.2" y2="11929.5" gradientUnits="userSpaceOnUse">
<stop stop-color="#808080" stop-opacity="0.25"/>
<stop offset="0.54" stop-color="#808080" stop-opacity="0.12"/>
<stop offset="1" stop-color="#808080" stop-opacity="0.1"/>
</linearGradient>
<linearGradient id="paint2_linear" x1="17747.1" y1="10676.5" x2="17747.1" y2="23.5415" gradientUnits="userSpaceOnUse">
<stop stop-color="#808080" stop-opacity="0.25"/>
<stop offset="0.54" stop-color="#808080" stop-opacity="0.12"/>
<stop offset="1" stop-color="#808080" stop-opacity="0.1"/>
</linearGradient>
<linearGradient id="paint3_linear" x1="30499.2" y1="10652.5" x2="30499.2" y2="0" gradientUnits="userSpaceOnUse">
<stop stop-color="#808080" stop-opacity="0.25"/>
<stop offset="0.54" stop-color="#808080" stop-opacity="0.12"/>
<stop offset="1" stop-color="#808080" stop-opacity="0.1"/>
</linearGradient>
<linearGradient id="paint4_linear" x1="5326.46" y1="22231.6" x2="5326.46" y2="11579.1" gradientUnits="userSpaceOnUse">
<stop stop-color="#808080" stop-opacity="0.25"/>
<stop offset="0.54" stop-color="#808080" stop-opacity="0.12"/>
<stop offset="1" stop-color="#808080" stop-opacity="0.1"/>
</linearGradient>
<linearGradient id="paint5_linear" x1="30698.6" y1="22824.8" x2="30698.6" y2="12172.3" gradientUnits="userSpaceOnUse">
<stop stop-color="#808080" stop-opacity="0.25"/>
<stop offset="0.54" stop-color="#808080" stop-opacity="0.12"/>
<stop offset="1" stop-color="#808080" stop-opacity="0.1"/>
</linearGradient>
<linearGradient id="paint6_linear" x1="5364.77" y1="34257.6" x2="5364.77" y2="23605.1" gradientUnits="userSpaceOnUse">
<stop stop-color="#808080" stop-opacity="0.25"/>
<stop offset="0.54" stop-color="#808080" stop-opacity="0.12"/>
<stop offset="1" stop-color="#808080" stop-opacity="0.1"/>
</linearGradient>
<linearGradient id="paint7_linear" x1="18073" y1="34871" x2="18073" y2="24218.6" gradientUnits="userSpaceOnUse">
<stop stop-color="#808080" stop-opacity="0.25"/>
<stop offset="0.54" stop-color="#808080" stop-opacity="0.12"/>
<stop offset="1" stop-color="#808080" stop-opacity="0.1"/>
</linearGradient>
<clipPath id="clip0">
<rect width="154.955" height="150" fill="white"/>
</clipPath>
</defs>
</svg>
