<svg width="24" height="24" viewBox="0 0 24 24" fill="none" xmlns="http://www.w3.org/2000/svg">
<path d="M21.8407 6.10829V21.6914C21.8407 22.9643 20.805 24 19.5321 24H8.99908C7.72613 24 6.69048 22.9643 6.69048 21.6914V11.559C7.01979 11.6137 7.35573 11.6493 7.70048 11.6493C7.94498 11.6493 8.18494 11.6311 8.42194 11.6031V21.6914C8.42194 22.0095 8.68079 22.2685 8.99908 22.2685H19.5321C19.8503 22.2685 20.1092 22.0095 20.1092 21.6914V6.10829C20.1092 5.78999 19.8502 5.53115 19.5321 5.53115H13.8186C13.8186 4.92922 13.7282 4.34907 13.5661 3.79973H19.5321C20.805 3.79968 21.8407 4.83534 21.8407 6.10829ZM7.60408 10.8897C4.60167 10.8897 2.15918 8.44717 2.15918 5.4449C2.15923 2.44249 4.60167 0 7.60408 0C10.6064 0 13.049 2.44249 13.049 5.4449C13.049 8.44717 10.6064 10.8897 7.60408 10.8897ZM7.60408 9.73533C9.96976 9.73533 11.8946 7.81086 11.8946 5.4449C11.8946 3.07879 9.97004 1.15433 7.60408 1.15433C5.23802 1.15433 3.31351 3.07879 3.31351 5.4449C3.31351 7.81086 5.23831 9.73533 7.60408 9.73533ZM10.8696 6.02209C11.1882 6.02209 11.4467 5.76353 11.4467 5.44495C11.4467 5.12636 11.1882 4.86781 10.8696 4.86781H8.18122V2.60216C8.18122 2.28358 7.92266 2.02502 7.60408 2.02502C7.2855 2.02502 7.02694 2.28358 7.02694 2.60216V5.44495C7.02694 5.76353 7.2855 6.02209 7.60408 6.02209H10.8696ZM17.5309 10.7016H11.2785C10.9599 10.7016 10.7013 10.9601 10.7013 11.2787C10.7013 11.5973 10.9599 11.8558 11.2785 11.8558H17.5309C17.8497 11.8558 18.1081 11.5973 18.1081 11.2787C18.1081 10.9601 17.8497 10.7016 17.5309 10.7016ZM17.5411 14.2025H11.2886C10.97 14.2025 10.7115 14.4609 10.7115 14.7796C10.7115 15.0984 10.97 15.3568 11.2886 15.3568H17.5411C17.8598 15.3568 18.1182 15.0984 18.1182 14.7796C18.1182 14.4609 17.8601 14.2025 17.5411 14.2025ZM17.5411 17.8483H11.2886C10.97 17.8483 10.7115 18.107 10.7115 18.4255C10.7115 18.7442 10.97 19.0026 11.2886 19.0026H17.5411C17.8598 19.0026 18.1182 18.7441 18.1182 18.4255C18.1182 18.107 17.8601 17.8483 17.5411 17.8483Z" fill="#6626EE"/>
</svg>
