<svg width="40" height="40" viewBox="0 0 40 40" fill="none" xmlns="http://www.w3.org/2000/svg">
<path d="M23.8281 20C23.8281 22.1143 22.1143 23.8281 20 23.8281C17.8857 23.8281 16.1719 22.1143 16.1719 20C16.1719 17.8857 17.8857 16.1719 20 16.1719C22.1143 16.1719 23.8281 17.8857 23.8281 20Z" fill="white"/>
<path d="M28.9526 13.2269C28.7686 12.7282 28.475 12.2769 28.0935 11.9064C27.723 11.5249 27.272 11.2313 26.773 11.0473C26.3683 10.8901 25.7604 10.7031 24.6407 10.6521C23.4295 10.5969 23.0663 10.585 19.9999 10.585C16.9332 10.585 16.5701 10.5966 15.3591 10.6518C14.2394 10.7031 13.6312 10.8901 13.2269 11.0473C12.7279 11.2313 12.2766 11.5249 11.9064 11.9064C11.5249 12.2769 11.2313 12.7279 11.047 13.2269C10.8898 13.6315 10.7028 14.2397 10.6518 15.3594C10.5966 16.5704 10.5847 16.9335 10.5847 20.0002C10.5847 23.0667 10.5966 23.4298 10.6518 24.6411C10.7028 25.7607 10.8898 26.3687 11.047 26.7733C11.2313 27.2723 11.5246 27.7233 11.9061 28.0938C12.2766 28.4753 12.7276 28.7689 13.2266 28.9529C13.6312 29.1104 14.2394 29.2974 15.3591 29.3484C16.5701 29.4036 16.9329 29.4152 19.9996 29.4152C23.0666 29.4152 23.4298 29.4036 24.6404 29.3484C25.7601 29.2974 26.3683 29.1104 26.773 28.9529C27.7746 28.5665 28.5662 27.7749 28.9526 26.7733C29.1097 26.3687 29.2968 25.7607 29.3481 24.6411C29.4033 23.4298 29.4149 23.0667 29.4149 20.0002C29.4149 16.9335 29.4033 16.5704 29.3481 15.3594C29.2971 14.2397 29.11 13.6315 28.9526 13.2269ZM19.9999 25.8972C16.7428 25.8972 14.1024 23.2571 14.1024 19.9999C14.1024 16.7428 16.7428 14.1027 19.9999 14.1027C23.2568 14.1027 25.8972 16.7428 25.8972 19.9999C25.8972 23.2571 23.2568 25.8972 19.9999 25.8972ZM26.1303 15.2477C25.3692 15.2477 24.7521 14.6307 24.7521 13.8696C24.7521 13.1085 25.3692 12.4914 26.1303 12.4914C26.8914 12.4914 27.5085 13.1085 27.5085 13.8696C27.5082 14.6307 26.8914 15.2477 26.1303 15.2477Z" fill="white"/>
<path d="M20 0C8.95599 0 0 8.95599 0 20C0 31.044 8.95599 40 20 40C31.044 40 40 31.044 40 20C40 8.95599 31.044 0 20 0ZM31.4151 24.7348C31.3596 25.9573 31.1652 26.792 30.8813 27.5226C30.2847 29.0652 29.0652 30.2847 27.5226 30.8813C26.7923 31.1652 25.9573 31.3593 24.7351 31.4151C23.5104 31.4709 23.1192 31.4844 20.0003 31.4844C16.8811 31.4844 16.4902 31.4709 15.2652 31.4151C14.043 31.3593 13.208 31.1652 12.4777 30.8813C11.7111 30.593 11.0172 30.141 10.4434 29.5566C9.85931 28.9832 9.40735 28.2889 9.11896 27.5226C8.83514 26.7923 8.64075 25.9573 8.58521 24.7351C8.52875 23.5101 8.51562 23.1189 8.51562 20C8.51562 16.8811 8.52875 16.4899 8.5849 15.2652C8.64044 14.0427 8.83453 13.208 9.11835 12.4774C9.40674 11.7111 9.85901 11.0168 10.4434 10.4434C11.0168 9.85901 11.7111 9.40704 12.4774 9.11865C13.208 8.83484 14.0427 8.64075 15.2652 8.5849C16.4899 8.52905 16.8811 8.51562 20 8.51562C23.1189 8.51562 23.5101 8.52905 24.7348 8.58521C25.9573 8.64075 26.792 8.83484 27.5226 9.11835C28.2889 9.40674 28.9832 9.85901 29.5569 10.4434C30.141 11.0172 30.5933 11.7111 30.8813 12.4774C31.1655 13.208 31.3596 14.0427 31.4154 15.2652C31.4713 16.4899 31.4844 16.8811 31.4844 20C31.4844 23.1189 31.4713 23.5101 31.4151 24.7348Z" fill="white"/>
</svg>
