<svg width="179" height="150" viewBox="0 0 179 150" fill="none" xmlns="http://www.w3.org/2000/svg">
<g clip-path="url(#clip0)">
<path d="M105.924 144.69C105.924 147.615 87.826 149.985 65.4629 150H65.2596C54.3436 150 44.4312 149.438 37.1269 148.526C36.8143 148.485 36.506 148.446 36.2043 148.404C34.9625 148.24 33.8016 148.063 32.7326 147.879C27.6233 146.989 24.5953 145.885 24.5953 144.69C24.5953 143.721 26.5761 142.816 30.0369 142.033C31.8646 141.62 34.1033 141.244 36.6831 140.912C37.1575 140.848 37.6443 140.789 38.1435 140.732C45.3385 139.891 54.8421 139.379 65.2596 139.379C67.284 139.379 69.2757 139.399 71.2215 139.436C90.8518 139.812 105.924 142.02 105.924 144.69Z" fill="#3F3D56"/>
<path d="M178.428 79.6152H118.199V110.483H178.428V79.6152Z" fill="#F2F2F2"/>
<path d="M103.519 0.188232H43.2896V31.0556H103.519V0.188232Z" fill="#F2F2F2"/>
<path d="M103.707 31.2438H43.1014V0H103.707V31.2438ZM43.4779 30.8674H103.33V0.37643H43.4779V30.8674Z" fill="#6C63FF"/>
<path d="M178.428 0.188232H118.199V31.0556H178.428V0.188232Z" fill="#F2F2F2"/>
<path d="M103.519 39.9016H43.2896V70.769H103.519V39.9016Z" fill="#F2F2F2"/>
<path d="M178.428 39.9016H118.199V70.769H178.428V39.9016Z" fill="#F2F2F2"/>
<path d="M103.519 79.6152H43.2896V110.483H103.519V79.6152Z" fill="#F2F2F2"/>
<path d="M7.71684 23.3387C11.9787 23.3387 15.4337 19.8838 15.4337 15.6219C15.4337 11.36 11.9787 7.90503 7.71684 7.90503C3.45495 7.90503 0 11.36 0 15.6219C0 19.8838 3.45495 23.3387 7.71684 23.3387Z" fill="#F2F2F2"/>
<path d="M29.3616 7.90503C27.8354 7.90503 26.3434 8.35762 25.0744 9.20555C23.8053 10.0535 22.8163 11.2587 22.2322 12.6688C21.6481 14.0788 21.4953 15.6304 21.7931 17.1274C22.0908 18.6243 22.8258 19.9993 23.905 21.0785C24.9842 22.1577 26.3592 22.8927 27.8561 23.1904C29.3531 23.4882 30.9047 23.3354 32.3147 22.7513C33.7248 22.1672 34.93 21.1781 35.7779 19.9091C36.6259 18.6401 37.0785 17.1481 37.0785 15.6219C37.0785 13.5752 36.2654 11.6124 34.8183 10.1652C33.3711 8.71805 31.4083 7.90503 29.3616 7.90503ZM32.7058 18.4888L32.0404 19.1542L29.2675 16.3813L26.4946 19.1542L25.8293 18.4888L28.6021 15.716L25.4528 12.5667L26.1182 11.9013L29.2675 15.0506L32.4168 11.9013L33.0822 12.5667L29.9329 15.716L32.7058 18.4888Z" fill="#F2F2F2"/>
<path d="M6.93774 19.285L3.38892 14.588L4.13978 14.0205L6.99036 17.7934L14.9851 8.63086L15.6942 9.2495L6.93774 19.285Z" fill="#6C63FF"/>
<path d="M96.9611 110.419C94.5137 110.004 92.16 109.648 89.9 109.351L90.7935 107.619C90.4922 107.514 89.1686 108.506 89.1686 108.506L90.3411 103.478C88.8259 103.66 88.0555 108.794 88.0555 108.794L86.3627 107.059L87.1823 109.01C81.2371 108.291 75.2556 107.915 69.2672 107.883L70.0319 106.4C69.7306 106.295 68.407 107.287 68.407 107.287L69.5795 102.259C68.0643 102.442 67.294 107.576 67.294 107.576L65.6011 105.84L66.4692 107.907C63.0266 107.964 59.5892 108.198 56.1706 108.607C56.944 106.297 59.5714 104.101 59.5714 104.101C57.5649 104.697 56.5123 105.697 55.9624 106.63C55.9132 101.864 56.7056 97.1273 58.3031 92.6372C58.3031 92.6372 54.1556 101.662 54.6849 107.721L54.7482 108.796C51.232 109.3 49.8488 110.483 49.8488 110.483L96.9611 110.419Z" fill="#3F3D56"/>
<path d="M68.065 55.5638C71.7413 55.5638 74.7215 52.5836 74.7215 48.9073C74.7215 45.231 71.7413 42.2507 68.065 42.2507C64.3887 42.2507 61.4084 45.231 61.4084 48.9073C61.4084 52.5836 64.3887 55.5638 68.065 55.5638Z" fill="#FF6584"/>
<path d="M139.495 91.0391L138.715 90.4148L143.085 86.5127H154.167V89.9465L146.987 94.7851L139.495 91.0391Z" fill="#3F3D56"/>
<path d="M156.187 88.7016V86.5908H154.716V87.1076L154.167 86.5127L150.577 90.4148L149.172 91.3512L146.994 107.264L150.279 110.549H157.913V90.5709L156.187 88.7016Z" fill="#CCCCCC"/>
<path d="M150.577 90.4148H138.715V110.549H150.577V90.4148Z" fill="#F2F2F2"/>
<path d="M145.504 105.633H143.319V110.549H145.504V105.633Z" fill="#CCCCCC"/>
<path d="M140.978 107.037V106.257H140.042V107.037H140.9H140.978Z" fill="#3F3D56"/>
<path d="M140.9 107.662H140.042V108.442H140.978V107.662H140.9Z" fill="#3F3D56"/>
<path d="M142.539 106.257H141.602V107.037H142.539V106.257Z" fill="#3F3D56"/>
<path d="M142.539 107.662H141.602V108.442H142.539V107.662Z" fill="#3F3D56"/>
<path d="M147.377 107.037V106.257H146.441V107.037H147.299H147.377Z" fill="#3F3D56"/>
<path d="M147.299 107.662H146.441V108.442H147.377V107.662H147.299Z" fill="#3F3D56"/>
<path d="M148.938 106.257H148.002V107.037H148.938V106.257Z" fill="#3F3D56"/>
<path d="M148.938 107.662H148.002V108.442H148.938V107.662Z" fill="#3F3D56"/>
<path d="M153.933 91.4295V90.6489H152.996V91.4295H153.855H153.933Z" fill="#3F3D56"/>
<path d="M153.855 92.0537H152.996V92.834H153.933V92.0537H153.855Z" fill="#3F3D56"/>
<path d="M155.494 90.6489H154.557V91.4293H155.494V90.6489Z" fill="#3F3D56"/>
<path d="M155.494 92.0537H154.557V92.8341H155.494V92.0537Z" fill="#3F3D56"/>
<path d="M153.933 95.7998V95.0193H152.996V95.7998H153.855H153.933Z" fill="#3F3D56"/>
<path d="M153.855 96.4238H152.996V97.2044H153.933V96.4238H153.855Z" fill="#3F3D56"/>
<path d="M155.494 95.0193H154.557V95.7997H155.494V95.0193Z" fill="#3F3D56"/>
<path d="M155.494 96.4238H154.557V97.2042H155.494V96.4238Z" fill="#3F3D56"/>
<path d="M153.933 100.17V99.3894H152.996V100.17H153.855H153.933Z" fill="#3F3D56"/>
<path d="M153.855 100.794H152.996V101.575H153.933V100.794H153.855Z" fill="#3F3D56"/>
<path d="M155.494 99.3894H154.557V100.17H155.494V99.3894Z" fill="#3F3D56"/>
<path d="M155.494 100.794H154.557V101.575H155.494V100.794Z" fill="#3F3D56"/>
<path d="M153.933 104.54V103.76H152.996V104.54H153.855H153.933Z" fill="#3F3D56"/>
<path d="M153.855 105.165H152.996V105.945H153.933V105.165H153.855Z" fill="#3F3D56"/>
<path d="M155.494 103.76H154.557V104.54H155.494V103.76Z" fill="#3F3D56"/>
<path d="M155.494 105.165H154.557V105.945H155.494V105.165Z" fill="#3F3D56"/>
<path d="M149.094 91.4294H140.042V93.3024H149.094V91.4294Z" fill="#3F3D56"/>
<path d="M149.094 95.1753H140.042V97.0483H149.094V95.1753Z" fill="#3F3D56"/>
<path d="M149.094 98.9211H140.042V100.794H149.094V98.9211Z" fill="#3F3D56"/>
<path d="M149.094 102.667H140.042V104.54H149.094V102.667Z" fill="#3F3D56"/>
<path d="M68.1028 89.896H76.0475V87.9783H80.4309V89.896H88.6496V98.3888H80.4309V109.073H76.0475V98.3888H68.1028L63.9933 93.7315L68.1028 89.896Z" fill="#3F3D56"/>
<path d="M91.4728 70.7692H91.0964C91.0964 65.8772 89.1531 61.1856 85.6939 57.7265C82.2348 54.2674 77.5432 52.324 72.6513 52.324C67.7593 52.324 63.0677 54.2674 59.6086 57.7265C56.1495 61.1856 54.2061 65.8772 54.2061 70.7692H53.8297C53.8313 65.7784 55.815 60.9926 59.3445 57.4642C62.8741 53.9358 67.6605 51.9536 72.6513 51.9536C77.642 51.9536 82.4284 53.9358 85.958 57.4642C89.4876 60.9926 91.4712 65.7784 91.4728 70.7692Z" fill="#3F3D56"/>
<path d="M63.6861 51.8536L63.2051 51.8545L63.2408 70.8552L63.7218 70.8543L63.6861 51.8536Z" fill="#3F3D56"/>
<path d="M68.1296 54.2666C68.1727 60.9106 63.5084 66.3271 63.5084 66.3271C63.5084 66.3271 58.7742 60.9716 58.7311 54.3276C58.688 47.6836 63.3523 42.2671 63.3523 42.2671C63.3523 42.2671 68.0865 47.6226 68.1296 54.2666Z" fill="#6C63FF"/>
<path opacity="0.1" d="M68.1296 54.2666C68.1727 60.9106 63.5084 66.3271 63.5084 66.3271C63.5084 66.3271 58.7742 60.9716 58.7311 54.3276C58.688 47.6836 63.3523 42.2671 63.3523 42.2671C63.3523 42.2671 68.0865 47.6226 68.1296 54.2666Z" fill="black"/>
<path d="M57.4327 51.8653L56.9517 51.8662L56.9874 70.8669L57.4684 70.866L57.4327 51.8653Z" fill="#3F3D56"/>
<path d="M61.8762 54.2784C61.9193 60.9224 57.255 66.3389 57.255 66.3389C57.255 66.3389 52.5208 60.9833 52.4777 54.3393C52.4346 47.6953 57.0989 42.2788 57.0989 42.2788C57.0989 42.2788 61.8331 47.6344 61.8762 54.2784Z" fill="#6C63FF"/>
<path d="M89.4638 55.8521H89.083V70.8943H89.4638V55.8521Z" fill="#3F3D56"/>
<path d="M92.9784 57.769C93.0026 63.0289 89.302 67.31 89.302 67.31C89.302 67.31 85.5621 63.0632 85.5378 57.8033C85.5136 52.5434 89.2142 48.2622 89.2142 48.2622C89.2142 48.2622 92.9542 52.5091 92.9784 57.769Z" fill="#6C63FF"/>
<path d="M147.458 68.896C154.687 68.896 160.548 63.0355 160.548 55.8061C160.548 48.5767 154.687 42.7161 147.458 42.7161C140.229 42.7161 134.368 48.5767 134.368 55.8061C134.368 63.0355 140.229 68.896 147.458 68.896Z" fill="#3F3D56"/>
<path d="M148.767 50.9326V56.4122H140.802L139.33 58.1778L139.498 56.4122H138.782V50.9326H148.767Z" fill="#6C63FF"/>
<path opacity="0.1" d="M148.767 52.8201H145.175V56.4122H148.767V52.8201Z" fill="black"/>
<path d="M145.966 53.6116H155.951V59.0911H155.235L155.403 60.8568L153.932 59.0911H145.966V53.6116Z" fill="#6C63FF"/>
<path opacity="0.1" d="M139.391 59.0612C140.601 59.0612 141.583 58.9655 141.583 58.8474C141.583 58.7293 140.601 58.6335 139.391 58.6335C138.18 58.6335 137.199 58.7293 137.199 58.8474C137.199 58.9655 138.18 59.0612 139.391 59.0612Z" fill="black"/>
<path opacity="0.1" d="M155.403 61.9526C156.782 61.9526 157.899 61.8436 157.899 61.7091C157.899 61.5746 156.782 61.4656 155.403 61.4656C154.025 61.4656 152.907 61.5746 152.907 61.7091C152.907 61.8436 154.025 61.9526 155.403 61.9526Z" fill="black"/>
<path d="M154.889 4.02445H146.239C145.822 4.02445 145.417 4.16646 145.091 4.42714C144.765 4.68782 144.537 5.05165 144.445 5.45883L140.075 24.8448C140.027 25.0562 140.026 25.2755 140.072 25.4873C140.118 25.6991 140.21 25.8983 140.341 26.0709C140.472 26.2435 140.64 26.3852 140.832 26.4863C141.023 26.5874 141.235 26.6453 141.451 26.6559L150.343 27.094C150.82 27.1175 151.288 26.9669 151.661 26.6704C152.034 26.3739 152.287 25.9517 152.372 25.4826L154.851 11.7765L155.036 11.8292L155.51 9.23137L155.32 9.18391L156.012 5.35805C156.042 5.19418 156.035 5.02579 155.992 4.86489C155.949 4.70398 155.871 4.55452 155.764 4.42716C155.657 4.29979 155.523 4.19767 155.371 4.12806C155.22 4.05845 155.055 4.02308 154.889 4.02445Z" fill="#3F3D56"/>
<path d="M147.378 4.44238H146.368C146.078 4.44238 145.797 4.54155 145.571 4.72343C145.345 4.9053 145.188 5.15894 145.127 5.44224L140.931 24.67C140.907 24.7807 140.907 24.8953 140.931 25.006C140.956 25.1167 141.004 25.2209 141.072 25.3114C141.14 25.4019 141.227 25.4767 141.326 25.5306C141.426 25.5844 141.536 25.6162 141.649 25.6236L150.513 26.2045C150.763 26.2208 151.01 26.1446 151.207 25.9902C151.405 25.8359 151.538 25.6143 151.583 25.3677L155.163 5.49389C155.186 5.36526 155.18 5.23311 155.147 5.10677C155.113 4.98043 155.053 4.86297 154.969 4.76269C154.885 4.66242 154.78 4.58176 154.662 4.52641C154.543 4.47107 154.414 4.44238 154.284 4.44238H153.326C153.233 4.44238 153.143 4.47295 153.069 4.52934C152.996 4.58573 152.943 4.66481 152.919 4.75433C152.897 4.83336 152.851 4.90317 152.786 4.95295C152.721 5.00273 152.641 5.02972 152.559 5.02972H148.012C147.852 5.02972 147.697 4.96922 147.58 4.86033C147.462 4.75144 147.39 4.60217 147.378 4.44238Z" fill="#6C63FF"/>
<path d="M74.6173 28.1765C81.5353 28.1765 87.1434 22.5684 87.1434 15.6504C87.1434 8.7324 81.5353 3.12427 74.6173 3.12427C67.6993 3.12427 62.0912 8.7324 62.0912 15.6504C62.0912 22.5684 67.6993 28.1765 74.6173 28.1765Z" fill="#6C63FF"/>
<path d="M85.5243 23.5149C83.1193 23.5151 77.8084 21.0449 73.085 18.1519C67.2239 14.5619 61.5315 9.86959 62.5266 8.24475C62.8079 7.78557 63.5051 7.66549 64.6584 7.8772L64.5757 8.32744C63.6826 8.16311 63.0782 8.22047 62.917 8.48372C62.6817 8.86781 63.2004 9.98282 65.3615 11.9603C67.331 13.7626 70.1588 15.8228 73.3242 17.7615C76.4895 19.7003 79.6097 21.2833 82.1099 22.2189C84.8535 23.2457 86.0824 23.2009 86.3175 22.8171C86.479 22.5534 86.2546 21.9883 85.7018 21.2664L86.0652 20.9881C86.779 21.9203 86.9893 22.5967 86.7078 23.0561C86.5146 23.3716 86.1037 23.5149 85.5243 23.5149Z" fill="#3F3D56"/>
<path d="M73.0711 11.774C74.4861 11.774 75.6332 10.6269 75.6332 9.21182C75.6332 7.79678 74.4861 6.64966 73.0711 6.64966C71.656 6.64966 70.5089 7.79678 70.5089 9.21182C70.5089 10.6269 71.656 11.774 73.0711 11.774Z" fill="white"/>
<path d="M73.8132 24.9655C74.7566 24.9655 75.5213 24.2008 75.5213 23.2574C75.5213 22.3141 74.7566 21.5493 73.8132 21.5493C72.8698 21.5493 72.1051 22.3141 72.1051 23.2574C72.1051 24.2008 72.8698 24.9655 73.8132 24.9655Z" fill="white"/>
<path d="M79.6952 19.1098C80.6385 19.1098 81.4033 18.3451 81.4033 17.4017C81.4033 16.4583 80.6385 15.6936 79.6952 15.6936C78.7518 15.6936 77.9871 16.4583 77.9871 17.4017C77.9871 18.3451 78.7518 19.1098 79.6952 19.1098Z" fill="white"/>
<path d="M178.617 110.671H118.011V79.427H178.617L178.617 110.671ZM118.388 110.294H178.24V79.8034H118.388V110.294Z" fill="#6C63FF"/>
<path d="M178.24 71.1454H117.635V39.9016H178.24V71.1454ZM118.011 70.769H177.864V40.278H118.011V70.769Z" fill="#6C63FF"/>
<path d="M42.9414 137.832C43.9689 141.63 47.4884 143.983 47.4884 143.983C47.4884 143.983 49.342 140.177 48.3145 136.378C47.287 132.58 43.7674 130.228 43.7674 130.228C43.7674 130.228 41.9139 134.033 42.9414 137.832Z" fill="#3F3D56"/>
<path d="M44.4513 137.016C47.2709 139.76 47.6153 143.98 47.6153 143.98C47.6153 143.98 43.3883 143.749 40.5687 141.004C37.7492 138.259 37.4048 134.04 37.4048 134.04C37.4048 134.04 41.6318 134.271 44.4513 137.016Z" fill="#6C63FF"/>
<path d="M54.3016 84.8903L51.2967 85.2242C51.2967 85.2242 49.9612 91.2339 51.2967 99.2469C52.6322 107.26 54.3016 115.273 54.3016 115.273C54.3016 115.273 55.6371 141.315 56.3048 141.649C56.9726 141.983 62.9823 143.986 63.3162 141.983C63.65 139.98 63.65 94.2388 63.65 94.2388L68.3243 116.275C68.3243 116.275 68.9921 143.986 70.3276 143.986C71.6631 143.986 76.0034 143.652 76.0034 141.315C76.0034 138.978 77.0051 108.262 77.0051 108.262C77.0051 108.262 76.6712 85.558 75.3357 84.8903C74.0002 84.2225 54.3016 84.8903 54.3016 84.8903Z" fill="#2F2E41"/>
<path d="M56.9726 140.648C56.9726 140.648 53.9677 140.314 53.2999 140.648C52.6322 140.982 51.6306 143.319 53.2999 144.654C54.9693 145.99 59.3097 147.993 60.6452 147.993C61.9807 147.993 63.3162 147.325 63.3162 147.325L62.6484 141.649L56.9726 140.648Z" fill="#2F2E41"/>
<path d="M70.3275 142.317L70.6614 146.991C70.6614 146.991 75.0018 147.659 75.3356 146.991C75.6695 146.323 79.0083 144.654 79.3421 144.32C79.676 143.986 80.0099 140.314 78.0066 139.98C76.0034 139.646 75.3356 140.648 75.3356 140.648L70.3275 142.317Z" fill="#2F2E41"/>
<path d="M78.0863 45.1621C78.0863 45.1621 85.3858 40.468 85.2169 37.2431C85.0479 34.0182 80.6475 23.85 80.6475 23.85C80.6475 23.85 77.205 16.6929 75.8365 19.6178C74.4679 22.5428 77.6352 25.6564 77.6352 25.6564L79.6794 35.631L74.1237 40.9312L78.0863 45.1621Z" fill="#A0616A"/>
<path d="M59.9774 38.4819C63.2965 38.4819 65.9872 35.7912 65.9872 32.4722C65.9872 29.1531 63.2965 26.4624 59.9774 26.4624C56.6583 26.4624 53.9677 29.1531 53.9677 32.4722C53.9677 35.7912 56.6583 38.4819 59.9774 38.4819Z" fill="#A0616A"/>
<path d="M56.9725 36.1446L57.9742 42.4882L65.3194 41.1527C65.3194 41.1527 64.9855 34.8091 64.9855 34.1413C64.9855 33.4736 56.9725 36.1446 56.9725 36.1446Z" fill="#A0616A"/>
<path d="M56.6387 42.4884C56.6387 42.4884 64.9855 40.4851 65.9872 41.1529C66.9888 41.8206 71.9969 42.4884 71.9969 42.4884L77.6728 51.1691L76.0034 62.187C76.0034 62.187 75.6695 79.8824 76.3373 82.8873C77.005 85.8921 80.6777 86.226 72.9985 86.8938C65.3194 87.5615 63.9839 86.5599 58.6419 87.8954C53.2999 89.2309 48.9595 87.2276 50.295 85.8921C51.6305 84.5566 53.9677 63.1886 51.2967 61.1854C48.6257 59.1821 47.624 48.832 47.624 48.832C47.624 48.832 56.6387 44.1578 56.6387 42.4884Z" fill="#3F3D56"/>
<path d="M70.9952 43.49L71.9969 42.4884L74.0001 40.4851C74.0001 40.4851 80.5107 43.323 80.1768 44.3247C79.8429 45.3263 77.6727 51.1691 77.6727 51.1691L74.6679 52.1707L70.9952 43.49Z" fill="#3F3D56"/>
<path d="M62.0747 25.1913L62.0131 24.7099C61.6046 24.7076 61.1984 24.7714 60.8103 24.8989C60.7706 24.6086 60.796 24.3131 60.8845 24.0338C60.4902 24.1352 60.1144 24.2985 59.7713 24.5178L59.5285 23.6392L56.1908 25.2841C54.9927 25.8746 53.7295 26.5234 53.0447 27.6702C52.2811 28.9486 52.414 30.5916 52.9359 31.9863C53.4579 33.3809 54.3252 34.6151 55.0204 35.932C55.2844 36.4982 55.6016 37.0381 55.9678 37.5443C57.2276 39.1148 59.6799 39.4321 61.4563 38.4843C62.1118 38.1344 62.7074 37.6116 62.9771 36.9192C63.1384 36.5052 63.1753 36.0547 63.2809 35.6231C63.5006 34.7256 63.7557 32.8731 64.4847 32.3053C64.8054 32.0554 65.4414 32.8837 65.7072 32.576C66.3903 31.7854 66.2469 30.5661 65.8227 29.6112C65.4155 28.6522 64.9395 27.7238 64.3985 26.8334C64.1693 26.4754 62.0673 25.1336 62.0747 25.1913Z" fill="#2F2E41"/>
<path d="M42.282 56.845C42.282 56.845 34.269 64.5241 35.2706 68.5306C36.2722 72.5371 44.2852 84.2227 44.2852 84.2227C44.2852 84.2227 51.9644 88.2292 52.966 84.2227C53.9676 80.2162 47.624 81.2178 47.624 81.2178L42.6159 69.1983L48.2917 61.1853L42.282 56.845Z" fill="#A0616A"/>
<path d="M51.6306 49.4998L47.624 48.832C47.624 48.832 44.6192 52.1708 43.6175 53.5063C42.6159 54.8418 40.6127 58.1805 40.6127 58.1805L47.624 63.1887L52.966 57.5128L51.6306 49.4998Z" fill="#3F3D56"/>
</g>
<defs>
<clipPath id="clip0">
<rect width="178.617" height="150" fill="white"/>
</clipPath>
</defs>
</svg>
