<svg width="127" height="33" viewBox="0 0 127 33" fill="none" xmlns="http://www.w3.org/2000/svg">
<path d="M32.4043 16.2035C32.4043 17.5428 32.2287 18.8347 31.8776 20.0793C31.5399 21.3104 31.0537 22.467 30.419 23.5492C29.7842 24.618 29.0279 25.5987 28.1501 26.4916C27.2722 27.3709 26.2931 28.1285 25.2126 28.7643C24.1322 29.4001 22.9707 29.8939 21.7282 30.2456C20.4992 30.5838 19.2162 30.7529 17.8791 30.7529H9.12756V1.6542H17.8791C19.2162 1.6542 20.4992 1.83007 21.7282 2.18179C22.9707 2.51999 24.1322 3.007 25.2126 3.64281C26.2931 4.27863 27.2722 5.04296 28.1501 5.93581C29.0279 6.81513 29.7842 7.79591 30.419 8.87814C31.0537 9.94685 31.5399 11.1035 31.8776 12.3481C32.2287 13.5791 32.4043 14.8643 32.4043 16.2035ZM26.5902 16.2035C26.5902 14.9996 26.3606 13.87 25.9014 12.8148C25.4557 11.7596 24.8345 10.8397 24.0376 10.0551C23.2543 9.25693 22.3292 8.62788 21.2623 8.16792C20.2088 7.70797 19.0811 7.478 17.8791 7.478H14.9822V24.9291H17.8791C19.0811 24.9291 20.2088 24.7059 21.2623 24.2595C22.3292 23.7995 23.2543 23.1772 24.0376 22.3926C24.8345 21.5944 25.4557 20.6678 25.9014 19.6126C26.3606 18.5439 26.5902 17.4075 26.5902 16.2035Z" fill="white"/>
<path d="M51.2088 30.7529H31.2949V1.6542H51.2088V7.478H37.1091V13.3018H46.6507V19.1256H37.1091V24.9291H51.2088V30.7529Z" fill="white"/>
<path d="M67.4 19.1256V13.3018C67.4 12.5036 67.2447 11.7528 66.9341 11.0494C66.637 10.3324 66.225 9.71011 65.6983 9.18252C65.1716 8.65493 64.5504 8.24233 63.8346 7.94471C63.1323 7.63357 62.3827 7.478 61.5859 7.478C60.7891 7.478 60.0328 7.63357 59.317 7.94471C58.6147 8.24233 58.0002 8.65493 57.4735 9.18252C56.9468 9.71011 56.5281 10.3324 56.2175 11.0494C55.9203 11.7528 55.7718 12.5036 55.7718 13.3018V19.1256H67.4ZM73.2141 30.7529H67.4V24.9291H55.7718V30.7529H49.9779V13.3018C49.9779 11.692 50.2818 10.1836 50.8895 8.77668C51.4973 7.35625 52.3211 6.11844 53.361 5.06325C54.4145 4.00807 55.6435 3.1761 57.048 2.56734C58.4661 1.95858 59.9787 1.6542 61.5859 1.6542C63.1931 1.6542 64.6989 1.95858 66.1035 2.56734C67.5216 3.1761 68.7573 4.00807 69.8107 5.06325C70.8642 6.11844 71.6948 7.35625 72.3025 8.77668C72.9103 10.1836 73.2141 11.692 73.2141 13.3018V30.7529Z" fill="white"/>
<path d="M96.4755 27.77C95.1249 28.9334 93.6123 29.8262 91.9376 30.4485C90.2629 31.0708 88.5275 31.3819 86.7312 31.3819C85.3537 31.3819 84.0234 31.1993 82.7404 30.8341C81.4709 30.4823 80.2756 29.9818 79.1547 29.3325C78.0472 28.6696 77.0343 27.8782 76.1159 26.9583C75.1976 26.0384 74.4075 25.0238 73.7457 23.9145C73.0975 22.7917 72.591 21.5944 72.2263 20.3228C71.8752 19.0377 71.6996 17.7052 71.6996 16.3253C71.6996 14.9454 71.8752 13.6129 72.2263 12.3278C72.591 11.0426 73.0975 9.84539 73.7457 8.7361C74.4075 7.61328 75.1976 6.59191 76.1159 5.67201C77.0343 4.75211 78.0472 3.96749 79.1547 3.31814C80.2756 2.65527 81.4709 2.14797 82.7404 1.79625C84.0234 1.43099 85.3537 1.24836 86.7312 1.24836C88.5275 1.24836 90.2629 1.55951 91.9376 2.18179C93.6123 2.79055 95.1249 3.6834 96.4755 4.86033L93.3962 9.93333C92.5454 9.01342 91.5392 8.30997 90.3777 7.82296C89.2163 7.32243 88.0008 7.07216 86.7312 7.07216C85.4482 7.07216 84.2462 7.31566 83.1253 7.80267C82.0043 8.28968 81.0252 8.95255 80.1878 9.79128C79.3505 10.6165 78.6887 11.5973 78.2025 12.7336C77.7163 13.8564 77.4732 15.0537 77.4732 16.3253C77.4732 17.5969 77.7163 18.7942 78.2025 19.917C78.6887 21.0263 79.3505 22.0003 80.1878 22.839C81.0252 23.6778 82.0043 24.3406 83.1253 24.8276C84.2462 25.3146 85.4482 25.5581 86.7312 25.5581C88.0008 25.5581 89.2163 25.3146 90.3777 24.8276C91.5392 24.3271 92.5454 23.6169 93.3962 22.697L96.4755 27.77Z" fill="white"/>
<path d="M122.492 16.3253C122.492 17.7052 122.31 19.0377 121.945 20.3228C121.594 21.5944 121.094 22.7917 120.446 23.9145C119.798 25.0238 119.014 26.0384 118.096 26.9583C117.178 27.8782 116.165 28.6696 115.057 29.3325C113.95 29.9818 112.754 30.4823 111.471 30.8341C110.188 31.1993 108.858 31.3819 107.481 31.3819C106.103 31.3819 104.773 31.1993 103.49 30.8341C102.22 30.4823 101.025 29.9818 99.904 29.3325C98.7965 28.6696 97.7836 27.8782 96.8652 26.9583C95.9469 26.0384 95.1568 25.0238 94.495 23.9145C93.8468 22.7917 93.3403 21.5944 92.9757 20.3228C92.6245 19.0377 92.4489 17.7052 92.4489 16.3253C92.4489 14.9454 92.6245 13.6129 92.9757 12.3278C93.3403 11.0426 93.8468 9.84539 94.495 8.7361C95.1568 7.62681 95.9469 6.61221 96.8652 5.6923C97.7836 4.7724 98.7965 3.98778 99.904 3.33844C101.025 2.68909 102.22 2.18856 103.49 1.83683C104.773 1.47157 106.103 1.28895 107.481 1.28895C108.858 1.28895 110.188 1.47157 111.471 1.83683C112.754 2.18856 113.95 2.68909 115.057 3.33844C116.165 3.98778 117.178 4.7724 118.096 5.6923C119.014 6.61221 119.798 7.62681 120.446 8.7361C121.094 9.84539 121.594 11.0426 121.945 12.3278C122.31 13.6129 122.492 14.9454 122.492 16.3253ZM116.718 16.3253C116.718 15.0537 116.475 13.8564 115.989 12.7336C115.503 11.5973 114.841 10.6165 114.004 9.79128C113.18 8.95255 112.201 8.28968 111.066 7.80267C109.945 7.31566 108.75 7.07216 107.481 7.07216C106.198 7.07216 104.996 7.31566 103.875 7.80267C102.754 8.28968 101.774 8.95255 100.937 9.79128C100.1 10.6165 99.438 11.5973 98.9518 12.7336C98.4656 13.8564 98.2225 15.0537 98.2225 16.3253C98.2225 17.5969 98.4656 18.7942 98.9518 19.917C99.438 21.0263 100.1 22.0003 100.937 22.839C101.774 23.6778 102.754 24.3406 103.875 24.8276C104.996 25.3146 106.198 25.5581 107.481 25.5581C108.75 25.5581 109.945 25.3146 111.066 24.8276C112.201 24.3406 113.18 23.6778 114.004 22.839C114.841 22.0003 115.503 21.0263 115.989 19.917C116.475 18.7942 116.718 17.5969 116.718 16.3253Z" fill="white"/>
<path d="M126.954 28.6831C126.954 29.1701 126.866 29.6301 126.69 30.063C126.515 30.4823 126.272 30.8476 125.961 31.1587C125.65 31.4699 125.286 31.7134 124.867 31.8892C124.448 32.0786 123.996 32.1733 123.51 32.1733C123.037 32.1733 122.585 32.0786 122.152 31.8892C121.734 31.7134 121.362 31.4699 121.038 31.1587C120.728 30.8476 120.478 30.4823 120.289 30.063C120.113 29.6301 120.025 29.1701 120.025 28.6831C120.025 28.2096 120.113 27.7632 120.289 27.3438C120.478 26.9245 120.728 26.5592 121.038 26.2481C121.362 25.9369 121.734 25.6934 122.152 25.5176C122.585 25.3282 123.037 25.2335 123.51 25.2335C123.996 25.2335 124.448 25.3282 124.867 25.5176C125.286 25.6934 125.65 25.9369 125.961 26.2481C126.272 26.5592 126.515 26.9245 126.69 27.3438C126.866 27.7632 126.954 28.2096 126.954 28.6831Z" fill="white"/>
<path d="M5.81412 30.7529H0V1.6542H5.81412V30.7529Z" fill="white"/>
<path d="M127 3.53243C127 5.48333 125.421 7.06485 123.473 7.06485C121.526 7.06485 119.947 5.48333 119.947 3.53243C119.947 1.58152 121.526 0 123.473 0C125.421 0 127 1.58152 127 3.53243Z" fill="white"/>
</svg>
